<svg width="81" height="104" xmlns="http://www.w3.org/2000/svg" xmlns:xlink="http://www.w3.org/1999/xlink" xmlns:svgjs="http://svgjs.com/svgjs" viewBox="765 453 81 104"><svg width="3" height="3" xmlns="http://www.w3.org/2000/svg" xmlns:xlink="http://www.w3.org/1999/xlink" xmlns:svgjs="http://svgjs.com/svgjs" viewBox="0.099 0 2.801 3" fill="#111211" x="793" y="495"><svg xmlns="http://www.w3.org/2000/svg" xmlns:xlink="http://www.w3.org/1999/xlink" width="3" height="3" viewBox="0.913 0.663 1.857 1.989"><path paint-order="stroke fill markers" fill-rule="evenodd" d="M2.77 2.652h-.296l-.23-.608H1.41l-.22.608H.913l.763-1.99h.285l.81 1.99zm-.603-.816l-.352-.92-.333.92h.685z"/></svg></svg><svg width="3" height="3" xmlns="http://www.w3.org/2000/svg" xmlns:xlink="http://www.w3.org/1999/xlink" xmlns:svgjs="http://svgjs.com/svgjs" viewBox="0 0.335 3 2.33" fill="#111211" x="800" y="495"><svg xmlns="http://www.w3.org/2000/svg" xmlns:xlink="http://www.w3.org/1999/xlink" width="3" height="3" viewBox="0.136 0.663 2.562 1.989"><path paint-order="stroke fill markers" fill-rule="evenodd" d="M2.698.663l-.552 1.989h-.248L1.42.922l-.48 1.73H.688L.136.662h.28l.395 1.62.448-1.62h.32l.445 1.62.402-1.62h.272z"/></svg></svg><svg width="2" height="3" xmlns="http://www.w3.org/2000/svg" xmlns:xlink="http://www.w3.org/1999/xlink" xmlns:svgjs="http://svgjs.com/svgjs" viewBox="0 0.43 2 2.139" fill="#111211" x="807" y="495"><svg xmlns="http://www.w3.org/2000/svg" xmlns:xlink="http://www.w3.org/1999/xlink" width="2" height="3" viewBox="0.052 0.663 1.86 1.989"><path paint-order="stroke fill markers" fill-rule="evenodd" d="M1.912 2.652h-.296l-.23-.608H.55l-.22.608H.052L.816.662h.285l.811 1.99zm-.604-.816L.954.916l-.331.92h.685z"/></svg></svg><svg width="3" height="3" xmlns="http://www.w3.org/2000/svg" xmlns:xlink="http://www.w3.org/1999/xlink" xmlns:svgjs="http://svgjs.com/svgjs" viewBox="0.25 0 2.501 3" fill="#111211" x="813" y="495"><svg xmlns="http://www.w3.org/2000/svg" xmlns:xlink="http://www.w3.org/1999/xlink" width="3" height="3" viewBox="0.467 0.663 1.659 1.99"><path paint-order="stroke fill markers" fill-rule="evenodd" d="M2.126 2.652h-.287l-.186-.535a.493.493 0 0 0-.291-.29.45.45 0 0 0-.148-.024H.73v.85H.467V.662H1.5c.047.006.092.01.135.02a.529.529 0 0 1 .236.11.463.463 0 0 1 .135.193.62.62 0 0 1 .018.428.574.574 0 0 1-.092.158.421.421 0 0 1-.14.112.809.809 0 0 1-.185.073c.157.06.275.194.316.356l.202.539zM.729 1.562h.59a.63.63 0 0 0 .353-.079.304.304 0 0 0 .112-.27c0-.222-.144-.337-.426-.337h-.63v.686z"/></svg></svg><svg width="3" height="3" xmlns="http://www.w3.org/2000/svg" xmlns:xlink="http://www.w3.org/1999/xlink" xmlns:svgjs="http://svgjs.com/svgjs" viewBox="0.264 0 2.471 3" fill="#111211" x="819" y="495"><svg xmlns="http://www.w3.org/2000/svg" xmlns:xlink="http://www.w3.org/1999/xlink" width="3" height="3" viewBox="0.802 0.651 1.656 2.01"><path paint-order="stroke fill markers" fill-rule="evenodd" d="M2.45 1.645a.896.896 0 0 1-1.018 1.007h-.63V.662h.63a.883.883 0 0 1 1.017.982m-.273 0a1.295 1.295 0 0 0-.034-.315.603.603 0 0 0-.12-.236.543.543 0 0 0-.23-.149A1.1 1.1 0 0 0 1.43.892h-.364V2.41h.364c.122.003.243-.014.359-.052a.562.562 0 0 0 .354-.394c.024-.107.035-.215.034-.325v.006"/></svg></svg><svg width="2" height="3" xmlns="http://www.w3.org/2000/svg" xmlns:xlink="http://www.w3.org/1999/xlink" xmlns:svgjs="http://svgjs.com/svgjs" viewBox="0 0.202 2 2.595" fill="#111211" x="826" y="495"><svg xmlns="http://www.w3.org/2000/svg" xmlns:xlink="http://www.w3.org/1999/xlink" width="2" height="3" viewBox="0.046 0.623 1.591 2.065"><path paint-order="stroke fill markers" fill-rule="evenodd" d="M.892 2.688a1.172 1.172 0 0 1-.37-.053.747.747 0 0 1-.26-.134.567.567 0 0 1-.157-.217.692.692 0 0 1-.06-.272h.253c.007.069.026.136.06.197.034.053.077.1.126.138a.63.63 0 0 0 .182.08.916.916 0 0 0 .417 0 .501.501 0 0 0 .157-.07.3.3 0 0 0 .101-.103.308.308 0 0 0 .006-.283.273.273 0 0 0-.107-.098.928.928 0 0 0-.192-.079 3.467 3.467 0 0 0-.291-.07 1.74 1.74 0 0 1-.289-.088.72.72 0 0 1-.199-.117.396.396 0 0 1-.114-.146.534.534 0 0 1 .013-.42.565.565 0 0 1 .145-.172.705.705 0 0 1 .223-.116 1.073 1.073 0 0 1 .594 0 .776.776 0 0 1 .237.117.672.672 0 0 1 .158.189c.039.079.059.165.058.253h-.256C1.302.982 1.14.863.836.863a.586.586 0 0 0-.34.079.258.258 0 0 0-.12.223c-.001.037.007.074.022.107a.21.21 0 0 0 .08.079c.043.026.09.046.139.06.057.019.13.037.22.056.091.019.168.038.237.06.062.015.123.034.183.057a.618.618 0 0 1 .266.175c.036.042.064.09.083.14a.54.54 0 0 1-.183.613.69.69 0 0 1-.232.123.936.936 0 0 1-.294.046l-.005.007"/></svg></svg><svg width="5" height="4" xmlns="http://www.w3.org/2000/svg" xmlns:xlink="http://www.w3.org/1999/xlink" xmlns:svgjs="http://svgjs.com/svgjs" viewBox="0.387 0 4.225 4" fill="#111211" x="793" y="489"><svg xmlns="http://www.w3.org/2000/svg" xmlns:xlink="http://www.w3.org/1999/xlink" width="5" height="4" viewBox="0.531 0.219 3.776 3.574"><path paint-order="stroke fill markers" fill-rule="evenodd" d="M2.8 3.721c.397.027.788-.121 1.068-.405.272-.352.403-.793.37-1.236h.069v1.713H.53v-.06c.144.001.29-.004.433-.017a.998.998 0 0 0 .245-.04.155.155 0 0 0 .087-.06.573.573 0 0 0 .02-.194V.584a.575.575 0 0 0-.022-.2.162.162 0 0 0-.079-.045A2.103 2.103 0 0 0 .957.295a4.316 4.316 0 0 0-.425-.02V.218h2.373v.055C2.688.274 2.52.28 2.4.29c-.087.006-.174.02-.258.045a.163.163 0 0 0-.084.049.436.436 0 0 0-.032.2v2.833c-.004.07.004.14.026.206.007.018.03.03.07.044.223.045.45.063.679.054h-.002"/></svg></svg><svg width="3" height="4" xmlns="http://www.w3.org/2000/svg" xmlns:xlink="http://www.w3.org/1999/xlink" xmlns:svgjs="http://svgjs.com/svgjs" viewBox="0.224 0 2.552 4" fill="#111211" x="797" y="489"><svg xmlns="http://www.w3.org/2000/svg" xmlns:xlink="http://www.w3.org/1999/xlink" width="3" height="4" viewBox="0.693 0.218 2.28 3.573"><path paint-order="stroke fill markers" fill-rule="evenodd" d="M2.19.573V3.42c-.005.07.002.14.023.206a.137.137 0 0 0 .07.045c.225.052.456.071.686.059v.061H.694V3.73c.165 0 .308-.004.43-.016a1.06 1.06 0 0 0 .249-.04.145.145 0 0 0 .086-.062.489.489 0 0 0 .022-.192V.573a.419.419 0 0 0-.027-.195c-.006-.016-.03-.03-.072-.046a2.524 2.524 0 0 0-.689-.06V.219h2.28v.055c-.163 0-.308.006-.43.015-.086.006-.172.02-.254.044l-.06.023c-.026.022-.04.094-.04.218h.001"/></svg></svg><svg width="4" height="4" xmlns="http://www.w3.org/2000/svg" xmlns:xlink="http://www.w3.org/1999/xlink" xmlns:svgjs="http://svgjs.com/svgjs" viewBox="0.002 0 3.996 4" fill="#111211" x="800" y="489"><svg xmlns="http://www.w3.org/2000/svg" xmlns:xlink="http://www.w3.org/1999/xlink" width="4" height="4" viewBox="0.338 0.217 3.57 3.573"><path paint-order="stroke fill markers" fill-rule="evenodd" d="M1.125 3.42V.582a.575.575 0 0 0-.023-.2.166.166 0 0 0-.079-.044A2.256 2.256 0 0 0 .761.292a4.192 4.192 0 0 0-.423-.02V.218h3.57v1.386h-.072c0-.287-.077-.568-.224-.815a.937.937 0 0 0-.848-.515c-.25 0-.425 0-.529.01a1.625 1.625 0 0 0-.31.055L1.875.36a.387.387 0 0 0-.039.222v1.295c.261.027.525-.013.766-.117.217-.269.33-.608.315-.954h.06v2.19h-.06c0-.5-.091-.814-.269-.938a1.66 1.66 0 0 0-.812-.123V3.42a.55.55 0 0 0 .023.206.179.179 0 0 0 .079.047c.087.024.177.037.267.04.135.012.316.015.542.015v.062H.338v-.062c.166 0 .31 0 .43-.015.083-.004.165-.017.246-.04a.155.155 0 0 0 .088-.061.477.477 0 0 0 .02-.192h.003"/></svg></svg><svg width="4" height="4" xmlns="http://www.w3.org/2000/svg" xmlns:xlink="http://www.w3.org/1999/xlink" xmlns:svgjs="http://svgjs.com/svgjs" viewBox="0 0.093 4 3.813" fill="#111211" x="804" y="489"><svg xmlns="http://www.w3.org/2000/svg" xmlns:xlink="http://www.w3.org/1999/xlink" width="4" height="4" viewBox="0.187 0.218 3.75 3.575"><path paint-order="stroke fill markers" fill-rule="evenodd" d="M1.675 1.935v1.48a.58.58 0 0 0 .019.195c.008.028.046.049.107.07a.78.78 0 0 0 .214.034c.079.006.224.006.433.006.37.028.733-.108.994-.372.26-.347.409-.766.425-1.2h.07v1.645H.187V3.73c.229.013.457-.007.68-.059a.132.132 0 0 0 .08-.059.505.505 0 0 0 .019-.192V.583a.492.492 0 0 0-.023-.2C.936.368.912.353.868.339A1.778 1.778 0 0 0 .61.294C.47.28.33.273.189.273V.218H3.75v1.386H3.68c0-.287-.077-.568-.223-.815a.939.939 0 0 0-.85-.516h-.442a1.36 1.36 0 0 0-.394.053.13.13 0 0 0-.071.056.576.576 0 0 0-.02.197v1.294c.253.027.51-.012.742-.116.206-.275.313-.61.306-.954h.067v2.189h-.067a1.525 1.525 0 0 0-.3-.938 1.415 1.415 0 0 0-.748-.122l-.005.003"/></svg></svg><svg width="4" height="4" xmlns="http://www.w3.org/2000/svg" xmlns:xlink="http://www.w3.org/1999/xlink" xmlns:svgjs="http://svgjs.com/svgjs" viewBox="0.509 0 2.981 4" fill="#111211" x="808" y="489"><svg xmlns="http://www.w3.org/2000/svg" xmlns:xlink="http://www.w3.org/1999/xlink" width="4" height="4" viewBox="0.441 0.17 2.737 3.672"><path paint-order="stroke fill markers" fill-rule="evenodd" d="M2.45.49c.223-.19.352-.294.38-.315v1.208l-.05-.016a1.422 1.422 0 0 0-.421-.818A1.083 1.083 0 0 0 1.067.351a.526.526 0 0 0-.272.473.56.56 0 0 0 .294.486c.248.138.518.234.798.283.324.057.637.163.928.315.254.198.389.51.358.83.018.325-.119.64-.37.847a1.145 1.145 0 0 1-.756.256 1.665 1.665 0 0 1-.61-.105 1.124 1.124 0 0 1-.464-.348c-.231.292-.353.443-.364.454V2.31l.052-.005c.054.263.137.52.246.765a1.5 1.5 0 0 0 .275.403c.239.225.562.34.889.315.18 0 .354-.06.494-.172.164-.114.261-.3.26-.499a.637.637 0 0 0-.35-.574 3.694 3.694 0 0 0-.846-.302 2.866 2.866 0 0 1-.84-.324.84.84 0 0 1-.347-.728.957.957 0 0 1 .316-.722c.2-.194.47-.3.75-.296a1.47 1.47 0 0 1 .604.105c.118.063.233.133.341.211L2.45.49"/></svg></svg><svg width="5" height="4" xmlns="http://www.w3.org/2000/svg" xmlns:xlink="http://www.w3.org/1999/xlink" xmlns:svgjs="http://svgjs.com/svgjs" viewBox="0.592 0 3.816 4" fill="#111211" x="811" y="489"><svg xmlns="http://www.w3.org/2000/svg" xmlns:xlink="http://www.w3.org/1999/xlink" width="5" height="4" viewBox="0.731 0.211 3.413 3.577"><path paint-order="stroke fill markers" fill-rule="evenodd" d="M4.144.218v1.577h-.08a2.579 2.579 0 0 0-.421-1.24.853.853 0 0 0-.7-.284.381.381 0 0 0-.126.01c-.015.01-.023.06-.023.145v2.992c-.005.07.003.14.023.206.008.015.035.028.079.047.086.023.175.037.264.04.13.013.31.015.53.015v.062H1.185v-.062c.217 0 .394 0 .523-.015.09-.003.18-.017.266-.04.047-.019.079-.036.09-.062a.493.493 0 0 0 .021-.192V.43c0-.098-.012-.148-.035-.158a.636.636 0 0 0-.121-.006.846.846 0 0 0-.686.278A2.64 2.64 0 0 0 .81 1.779H.731V.21l3.413.007z"/></svg></svg><svg width="5" height="4" xmlns="http://www.w3.org/2000/svg" xmlns:xlink="http://www.w3.org/1999/xlink" xmlns:svgjs="http://svgjs.com/svgjs" viewBox="0.13 0 4.741 4" fill="#111211" x="815" y="489"><svg xmlns="http://www.w3.org/2000/svg" xmlns:xlink="http://www.w3.org/1999/xlink" width="5" height="4" viewBox="0.439 0.217 4.239 3.576"><path paint-order="stroke fill markers" fill-rule="evenodd" d="M2.304 2.278L1.266.581A.581.581 0 0 0 1.01.325 1.927 1.927 0 0 0 .439.272V.217h2.278v.055a2.206 2.206 0 0 0-.527.045c-.107.029-.157.08-.157.158a.304.304 0 0 0 .05.146l.919 1.484.63-1.021a.744.744 0 0 0 .13-.382c0-.284-.212-.426-.63-.426V.22h1.546v.056a.776.776 0 0 0-.617.283c-.167.26-.295.464-.39.61l-.644 1.046v1.209c-.006.07.002.139.023.205.007.015.035.03.079.046.086.025.176.038.266.04.133.013.305.017.526.017v.06H1.415v-.06c.221 0 .395-.004.526-.017.091-.002.18-.015.267-.04.045-.017.075-.031.08-.046a.514.514 0 0 0 .022-.205l-.006-1.146z"/></svg></svg><svg width="5" height="4" xmlns="http://www.w3.org/2000/svg" xmlns:xlink="http://www.w3.org/1999/xlink" xmlns:svgjs="http://svgjs.com/svgjs" viewBox="0.386 0 4.228 4" fill="#111211" x="819" y="489"><svg xmlns="http://www.w3.org/2000/svg" xmlns:xlink="http://www.w3.org/1999/xlink" width="5" height="4" viewBox="0.929 0.219 3.778 3.574"><path paint-order="stroke fill markers" fill-rule="evenodd" d="M3.2 3.721c.398.027.788-.12 1.067-.405.273-.352.403-.793.37-1.236h.07v1.713H.93v-.06c.145.001.29-.004.434-.017a.984.984 0 0 0 .243-.04.165.165 0 0 0 .09-.06.593.593 0 0 0 .018-.194V.584a.494.494 0 0 0-.022-.2C1.686.37 1.66.355 1.613.339a2.113 2.113 0 0 0-.259-.044A4.361 4.361 0 0 0 .93.275V.218h2.374v.055c-.213 0-.386.006-.506.016-.087.006-.172.02-.255.045a.187.187 0 0 0-.089.049.492.492 0 0 0-.027.2v2.833c-.006.07.002.14.023.206.01.018.028.03.069.044.224.045.453.063.68.054H3.2"/></svg></svg><svg width="4" height="4" xmlns="http://www.w3.org/2000/svg" xmlns:xlink="http://www.w3.org/1999/xlink" xmlns:svgjs="http://svgjs.com/svgjs" viewBox="0 0.096 4 3.807" fill="#111211" x="824" y="489"><svg xmlns="http://www.w3.org/2000/svg" xmlns:xlink="http://www.w3.org/1999/xlink" width="4" height="4" viewBox="0.093 0.218 3.756 3.575"><path paint-order="stroke fill markers" fill-rule="evenodd" d="M1.584 1.935v1.48a.737.737 0 0 0 .016.195c.011.028.048.049.11.07.07.021.144.033.217.034.079.006.223.006.43.006.37.027.734-.108.996-.372.262-.346.41-.765.425-1.2h.071v1.645H.095V3.73c.229.013.46-.007.683-.059a.133.133 0 0 0 .079-.059.56.56 0 0 0 .02-.192V.583a.557.557 0 0 0-.022-.2.161.161 0 0 0-.079-.044A1.857 1.857 0 0 0 .517.294 4.366 4.366 0 0 0 .093.273V.218h3.563v1.386h-.07a1.58 1.58 0 0 0-.227-.815.932.932 0 0 0-.846-.516H2.07a1.356 1.356 0 0 0-.394.053.134.134 0 0 0-.07.056.521.521 0 0 0-.022.197v1.294c.255.027.51-.012.745-.116.202-.276.309-.611.304-.954h.065v2.189h-.065a1.57 1.57 0 0 0-.297-.938 1.43 1.43 0 0 0-.752-.122v.003"/></svg></svg><svg width="63" height="1" xmlns="http://www.w3.org/2000/svg" xmlns:xlink="http://www.w3.org/1999/xlink" xmlns:svgjs="http://svgjs.com/svgjs" viewBox="0 0.428 63 0.144" fill="#ac7a41" opacity=".4" x="776" y="494"><svg xmlns="http://www.w3.org/2000/svg" xmlns:xlink="http://www.w3.org/1999/xlink" width="63" height="1" viewBox="0.854 0.538 61.378 0.14"><path paint-order="stroke fill markers" fill-rule="evenodd" d="M.854.538H54.51v.14H.854v-.14zm57.007 0h4.371v.14h-4.37v-.14z"/></svg></svg><svg width="10" height="2" xmlns="http://www.w3.org/2000/svg" xmlns:xlink="http://www.w3.org/1999/xlink" xmlns:svgjs="http://svgjs.com/svgjs" viewBox="0 0.451 10 1.098" fill="#111211" x="806" y="472"><svg xmlns="http://www.w3.org/2000/svg" xmlns:xlink="http://www.w3.org/1999/xlink" width="10" height="2" viewBox="0.525 0.201 9.136 1.003"><path paint-order="stroke fill markers" fill-rule="evenodd" d="M.525.2H9.66v1.004H.525V.2zM1.22.36a.342.342 0 1 1-.004.684.342.342 0 0 1 .004-.684zm1.281 0a.342.342 0 1 1-.003 0h.003zm1.282 0a.342.342 0 1 1-.002.684.342.342 0 0 1 .002-.684zm5.186 0a.342.342 0 1 0 .004.684.342.342 0 0 0-.004-.684zm-1.281 0a.343.343 0 1 0 .002.685.343.343 0 0 0-.002-.685zm-1.28 0a.343.343 0 1 0-.001.685.343.343 0 0 0 0-.685zm-1.316 0z"/></svg></svg><svg width="10" height="3" xmlns="http://www.w3.org/2000/svg" xmlns:xlink="http://www.w3.org/1999/xlink" xmlns:svgjs="http://svgjs.com/svgjs" viewBox="0 0.401 10 2.198" fill="#111211" x="806" y="471"><svg xmlns="http://www.w3.org/2000/svg" xmlns:xlink="http://www.w3.org/1999/xlink" width="10" height="3" viewBox="0.333 0.654 9.532 2.096"><path paint-order="stroke fill markers" fill-rule="evenodd" d="M.525.655H9.66a.192.192 0 1 1 0 .384H.525a.193.193 0 0 1 0-.384zm0 1.71H9.66a.193.193 0 0 1 0 .385H.525a.193.193 0 0 1 0-.385z"/></svg></svg><svg width="2" height="2" xmlns="http://www.w3.org/2000/svg" xmlns:xlink="http://www.w3.org/1999/xlink" xmlns:svgjs="http://svgjs.com/svgjs" viewBox="0 0 1.999 2" fill="#111211" x="805" y="470"><svg xmlns="http://www.w3.org/2000/svg" xmlns:xlink="http://www.w3.org/1999/xlink" width="2" height="2" viewBox="0.949 0.316 0.688 0.688"><path paint-order="stroke fill markers" fill-rule="evenodd" d="M1.289.316a.344.344 0 1 1-.34.348V.66c.001-.188.152-.34.34-.343z"/></svg></svg><svg width="2" height="2" xmlns="http://www.w3.org/2000/svg" xmlns:xlink="http://www.w3.org/1999/xlink" xmlns:svgjs="http://svgjs.com/svgjs" viewBox="0 0 2 1.999" fill="#111211" x="807" y="470"><svg xmlns="http://www.w3.org/2000/svg" xmlns:xlink="http://www.w3.org/1999/xlink" width="2" height="2" viewBox="0.55 0.317 0.688 0.687"><path paint-order="stroke fill markers" fill-rule="evenodd" d="M.891.317A.344.344 0 1 1 .55.663V.659C.55.47.703.319.89.317z"/></svg></svg><svg width="2" height="2" xmlns="http://www.w3.org/2000/svg" xmlns:xlink="http://www.w3.org/1999/xlink" xmlns:svgjs="http://svgjs.com/svgjs" viewBox="0 0 1.999 2" fill="#111211" x="810" y="470"><svg xmlns="http://www.w3.org/2000/svg" xmlns:xlink="http://www.w3.org/1999/xlink" width="2" height="2" viewBox="0.741 0.313 0.688 0.688"><path paint-order="stroke fill markers" fill-rule="evenodd" d="M1.093 1.001A.344.344 0 1 1 1.429.65v.007c0 .187-.15.34-.336.344z"/></svg></svg><svg width="1" height="1" xmlns="http://www.w3.org/2000/svg" xmlns:xlink="http://www.w3.org/1999/xlink" xmlns:svgjs="http://svgjs.com/svgjs" fill="#111211" x="809" y="469"><svg xmlns="http://www.w3.org/2000/svg" xmlns:xlink="http://www.w3.org/1999/xlink" width="1" height="1" viewBox="0.003 0.186 0.684 0.685"><path paint-order="stroke fill markers" fill-rule="evenodd" d="M.344.186a.342.342 0 1 1-.341.343V.527c0-.188.153-.341.34-.341h.001z"/></svg></svg><svg width="2" height="2" xmlns="http://www.w3.org/2000/svg" xmlns:xlink="http://www.w3.org/1999/xlink" xmlns:svgjs="http://svgjs.com/svgjs" fill="#111211" x="804" y="466"><svg xmlns="http://www.w3.org/2000/svg" xmlns:xlink="http://www.w3.org/1999/xlink" width="2" height="2" viewBox="0.647 0.532 0.577 0.577"><path paint-order="stroke fill markers" fill-rule="evenodd" d="M.935.532a.289.289 0 1 1 0 .578.289.289 0 0 1 0-.578z"/></svg></svg><svg width="2" height="1" xmlns="http://www.w3.org/2000/svg" xmlns:xlink="http://www.w3.org/1999/xlink" xmlns:svgjs="http://svgjs.com/svgjs" viewBox="0.5 0 1 1" fill="#111211" x="805" y="465"><svg xmlns="http://www.w3.org/2000/svg" xmlns:xlink="http://www.w3.org/1999/xlink" width="2" height="1" viewBox="0.842 0.421 0.577 0.577"><path paint-order="stroke fill markers" fill-rule="evenodd" d="M1.13.42a.289.289 0 1 1 .001.578A.289.289 0 0 1 1.13.42z"/></svg></svg><svg width="1" height="2" xmlns="http://www.w3.org/2000/svg" xmlns:xlink="http://www.w3.org/1999/xlink" xmlns:svgjs="http://svgjs.com/svgjs" viewBox="0 0.5 1 1" fill="#111211" x="807" y="466"><svg xmlns="http://www.w3.org/2000/svg" xmlns:xlink="http://www.w3.org/1999/xlink" width="1" height="2" viewBox="0.1 0.532 0.577 0.577"><path paint-order="stroke fill markers" fill-rule="evenodd" d="M.389.532a.289.289 0 1 1 0 .578.289.289 0 0 1 0-.578z"/></svg></svg><svg width="2" height="1" xmlns="http://www.w3.org/2000/svg" xmlns:xlink="http://www.w3.org/1999/xlink" xmlns:svgjs="http://svgjs.com/svgjs" viewBox="0.5 0 1 1" fill="#111211" x="807" y="465"><svg xmlns="http://www.w3.org/2000/svg" xmlns:xlink="http://www.w3.org/1999/xlink" width="2" height="1" viewBox="0.797 0.227 0.576 0.576"><path paint-order="stroke fill markers" fill-rule="evenodd" d="M1.084.227a.288.288 0 1 1-.002 0h.002z"/></svg></svg><svg width="2" height="2" xmlns="http://www.w3.org/2000/svg" xmlns:xlink="http://www.w3.org/1999/xlink" xmlns:svgjs="http://svgjs.com/svgjs" fill="#111211" x="808" y="464"><svg xmlns="http://www.w3.org/2000/svg" xmlns:xlink="http://www.w3.org/1999/xlink" width="2" height="2" viewBox="0.999 0.485 0.577 0.577"><path paint-order="stroke fill markers" fill-rule="evenodd" d="M1.285.485A.29.29 0 1 1 1 .775V.774a.29.29 0 0 1 .286-.288z"/></svg></svg><svg width="2" height="2" xmlns="http://www.w3.org/2000/svg" xmlns:xlink="http://www.w3.org/1999/xlink" xmlns:svgjs="http://svgjs.com/svgjs" viewBox="0 0 1.999 2" fill="#111211" x="810" y="464"><svg xmlns="http://www.w3.org/2000/svg" xmlns:xlink="http://www.w3.org/1999/xlink" width="2" height="2" viewBox="0.619 0.498 0.935 0.935"><path paint-order="stroke fill markers" fill-rule="evenodd" d="M1.093 1.433A.468.468 0 1 1 1.554.96v.006a.468.468 0 0 1-.461.467z"/></svg></svg><svg width="2" height="1" xmlns="http://www.w3.org/2000/svg" xmlns:xlink="http://www.w3.org/1999/xlink" xmlns:svgjs="http://svgjs.com/svgjs" viewBox="0.5 0 1 1" fill="#111211" x="810" y="466"><svg xmlns="http://www.w3.org/2000/svg" xmlns:xlink="http://www.w3.org/1999/xlink" width="2" height="1" viewBox="0.77 0.352 0.647 0.646"><path paint-order="stroke fill markers" fill-rule="evenodd" d="M1.093.998a.323.323 0 1 1 0-.646.323.323 0 0 1 0 .646z"/></svg></svg><svg width="2" height="3" xmlns="http://www.w3.org/2000/svg" xmlns:xlink="http://www.w3.org/1999/xlink" xmlns:svgjs="http://svgjs.com/svgjs" viewBox="0 0.165 2 2.671" fill="#111211" x="810" y="462"><svg xmlns="http://www.w3.org/2000/svg" xmlns:xlink="http://www.w3.org/1999/xlink" width="2" height="3" viewBox="0.444 0.637 1.302 1.739"><path paint-order="stroke fill markers" fill-rule="evenodd" d="M1.093 2.377a1.277 1.277 0 0 0-.61-.868.65.65 0 1 1 1.225 0c-.321.187-.546.504-.616.868"/></svg></svg><svg width="4" height="5" xmlns="http://www.w3.org/2000/svg" xmlns:xlink="http://www.w3.org/1999/xlink" xmlns:svgjs="http://svgjs.com/svgjs" viewBox="0 0.286 4 4.428" fill="#111211" x="804" y="465"><svg xmlns="http://www.w3.org/2000/svg" xmlns:xlink="http://www.w3.org/1999/xlink" width="4" height="5" viewBox="0.601 0.793 2.978 3.297"><path paint-order="stroke fill markers" fill-rule="evenodd" d="M1.626 4.09l.277-.394C.845 2.128 1.965 1.214 3.507.874l.073-.07a3.779 3.779 0 0 0-1.025.06.447.447 0 0 1-.676.217 2.4 2.4 0 0 0-.588.384.501.501 0 0 1-.56.81c-.121.33-.158.684-.108 1.032.41.147.76.42 1.003.78v.003"/></svg></svg><svg width="10" height="2" xmlns="http://www.w3.org/2000/svg" xmlns:xlink="http://www.w3.org/1999/xlink" xmlns:svgjs="http://svgjs.com/svgjs" viewBox="0 0.269 10 1.461" fill="#111211" x="806" y="470"><svg xmlns="http://www.w3.org/2000/svg" xmlns:xlink="http://www.w3.org/1999/xlink" width="10" height="2" viewBox="0.431 0.07 9.322 1.362"><path paint-order="stroke fill markers" fill-rule="evenodd" d="M9.701 1.263a.641.641 0 0 1-.427-.495A1.307 1.307 0 0 0 8.83.641V.66a.536.536 0 0 1-1.072 0V.656c-.46 0-.84-.087-.935-.586a1.096 1.096 0 0 1-1.21.609.522.522 0 0 1-1.043 0 1.09 1.09 0 0 1-1.206-.61c-.097.5-.478.587-.938.587v.008a.536.536 0 0 1-1.072 0V.646a1.293 1.293 0 0 0-.442.127.63.63 0 0 1-.177.338.617.617 0 0 1-.25.157c-.02.054-.04.109-.054.164h9.322a1.766 1.766 0 0 0-.055-.164l.003-.005m-8.546.023a.204.204 0 1 1 .203-.204v.001c0 .113-.09.203-.203.203zm2.286 0a.204.204 0 1 1 .202-.206v.003c0 .112-.09.203-.202.203zm3.306 0a.204.204 0 1 1 .001 0h-.001zm2.286 0a.204.204 0 1 1 .204-.204v.001c0 .113-.09.203-.204.203z"/></svg></svg><svg width="2" height="2" xmlns="http://www.w3.org/2000/svg" xmlns:xlink="http://www.w3.org/1999/xlink" xmlns:svgjs="http://svgjs.com/svgjs" viewBox="0 0.001 2 1.999" fill="#111211" x="815" y="470"><svg xmlns="http://www.w3.org/2000/svg" xmlns:xlink="http://www.w3.org/1999/xlink" width="2" height="2" viewBox="0.551 0.317 0.688 0.687"><path paint-order="stroke fill markers" fill-rule="evenodd" d="M.897.317a.344.344 0 1 0 .342.346V.659A.343.343 0 0 0 .897.317z"/></svg></svg><svg width="2" height="2" xmlns="http://www.w3.org/2000/svg" xmlns:xlink="http://www.w3.org/1999/xlink" xmlns:svgjs="http://svgjs.com/svgjs" viewBox="0 0 2 1.999" fill="#111211" x="813" y="470"><svg xmlns="http://www.w3.org/2000/svg" xmlns:xlink="http://www.w3.org/1999/xlink" width="2" height="2" viewBox="0.95 0.317 0.688 0.687"><path paint-order="stroke fill markers" fill-rule="evenodd" d="M1.296.317a.344.344 0 1 0 .342.346V.659a.343.343 0 0 0-.342-.342z"/></svg></svg><svg width="2" height="1" xmlns="http://www.w3.org/2000/svg" xmlns:xlink="http://www.w3.org/1999/xlink" xmlns:svgjs="http://svgjs.com/svgjs" viewBox="0.5 0 1 1" fill="#111211" x="812" y="469"><svg xmlns="http://www.w3.org/2000/svg" xmlns:xlink="http://www.w3.org/1999/xlink" width="2" height="1" viewBox="0.502 0.186 0.684 0.685"><path paint-order="stroke fill markers" fill-rule="evenodd" d="M.845.186a.343.343 0 1 0 .341.344V.527a.344.344 0 0 0-.34-.341z"/></svg></svg><svg width="2" height="2" xmlns="http://www.w3.org/2000/svg" xmlns:xlink="http://www.w3.org/1999/xlink" xmlns:svgjs="http://svgjs.com/svgjs" fill="#111211" x="816" y="466"><svg xmlns="http://www.w3.org/2000/svg" xmlns:xlink="http://www.w3.org/1999/xlink" width="2" height="2" viewBox="0.964 0.532 0.577 0.577"><path paint-order="stroke fill markers" fill-rule="evenodd" d="M1.251.532a.289.289 0 1 0 .003 0h-.003z"/></svg></svg><svg width="2" height="1" xmlns="http://www.w3.org/2000/svg" xmlns:xlink="http://www.w3.org/1999/xlink" xmlns:svgjs="http://svgjs.com/svgjs" viewBox="0.5 0 1 1" fill="#111211" x="815" y="465"><svg xmlns="http://www.w3.org/2000/svg" xmlns:xlink="http://www.w3.org/1999/xlink" width="2" height="1" viewBox="0.769 0.421 0.577 0.577"><path paint-order="stroke fill markers" fill-rule="evenodd" d="M1.06.42A.289.289 0 1 0 1.056 1 .289.289 0 0 0 1.06.42z"/></svg></svg><svg width="2" height="2" xmlns="http://www.w3.org/2000/svg" xmlns:xlink="http://www.w3.org/1999/xlink" xmlns:svgjs="http://svgjs.com/svgjs" fill="#111211" x="814" y="466"><svg xmlns="http://www.w3.org/2000/svg" xmlns:xlink="http://www.w3.org/1999/xlink" width="2" height="2" viewBox="0.511 0.532 0.577 0.577"><path paint-order="stroke fill markers" fill-rule="evenodd" d="M.798.532a.289.289 0 1 0 .004.578.289.289 0 0 0-.004-.578z"/></svg></svg><svg width="2" height="1" xmlns="http://www.w3.org/2000/svg" xmlns:xlink="http://www.w3.org/1999/xlink" xmlns:svgjs="http://svgjs.com/svgjs" viewBox="0.5 0 1 1" fill="#111211" x="813" y="465"><svg xmlns="http://www.w3.org/2000/svg" xmlns:xlink="http://www.w3.org/1999/xlink" width="2" height="1" viewBox="0.816 0.227 0.576 0.576"><path paint-order="stroke fill markers" fill-rule="evenodd" d="M1.103.227a.287.287 0 1 0 0 0z"/></svg></svg><svg width="2" height="2" xmlns="http://www.w3.org/2000/svg" xmlns:xlink="http://www.w3.org/1999/xlink" xmlns:svgjs="http://svgjs.com/svgjs" viewBox="0 0 1.999 2" fill="#111211" x="812" y="464"><svg xmlns="http://www.w3.org/2000/svg" xmlns:xlink="http://www.w3.org/1999/xlink" width="2" height="2" viewBox="0.611 0.485 0.577 0.577"><path paint-order="stroke fill markers" fill-rule="evenodd" d="M.898.485a.288.288 0 1 0 .003.577.288.288 0 0 0-.003-.577z"/></svg></svg><svg width="2" height="3" xmlns="http://www.w3.org/2000/svg" xmlns:xlink="http://www.w3.org/1999/xlink" xmlns:svgjs="http://svgjs.com/svgjs" viewBox="0 0.317 2 2.365" fill="#111211" x="816" y="468"><svg xmlns="http://www.w3.org/2000/svg" xmlns:xlink="http://www.w3.org/1999/xlink" width="2" height="3" viewBox="0.051 0.569 1.5 1.774"><path paint-order="stroke fill markers" fill-rule="evenodd" d="M.051 2.169c.135-.298.18-.628.133-.95.187.054.279.208.302.49A1.891 1.891 0 0 1 1.552.57L.302 2.343a.522.522 0 0 0-.25-.174z"/></svg></svg><svg width="4" height="5" xmlns="http://www.w3.org/2000/svg" xmlns:xlink="http://www.w3.org/1999/xlink" xmlns:svgjs="http://svgjs.com/svgjs" viewBox="0 0.292 4 4.416" fill="#111211" x="814" y="465"><svg xmlns="http://www.w3.org/2000/svg" xmlns:xlink="http://www.w3.org/1999/xlink" width="4" height="5" viewBox="0.608 0.796 2.984 3.295"><path paint-order="stroke fill markers" fill-rule="evenodd" d="M2.564 4.09l-.278-.394C3.344 2.128 2.226 1.214.682.874L.608.808a3.78 3.78 0 0 1 1.024.059.457.457 0 0 0 .428.297c.089 0 .176-.028.25-.079.213.098.411.228.587.384a.5.5 0 0 0 .565.81c.122.33.158.684.107 1.032-.409.146-.76.42-1.002.78h-.003"/></svg></svg><svg width="4" height="4" xmlns="http://www.w3.org/2000/svg" xmlns:xlink="http://www.w3.org/1999/xlink" xmlns:svgjs="http://svgjs.com/svgjs" viewBox="0 0.063 4 3.874" fill="#111211" x="809" y="467"><svg xmlns="http://www.w3.org/2000/svg" xmlns:xlink="http://www.w3.org/1999/xlink" width="4" height="4" viewBox="0.85 0.933 2.491 2.413"><path paint-order="stroke fill markers" fill-rule="evenodd" d="M2.094.933c.127.507.731.383.354 1.546.433-.432.588-.4.893-.357-.45.586-.35.994-.834 1.224a.51.51 0 0 0-.413-.221.519.519 0 0 0-.413.22C1.2 3.117 1.298 2.709.85 2.123c.305-.043.46-.075.892.357-.38-1.163.227-1.038.352-1.546z"/></svg></svg><svg width="3" height="3" xmlns="http://www.w3.org/2000/svg" xmlns:xlink="http://www.w3.org/1999/xlink" xmlns:svgjs="http://svgjs.com/svgjs" viewBox="0.232 0 2.535 3" fill="#111211" x="804" y="468"><svg xmlns="http://www.w3.org/2000/svg" xmlns:xlink="http://www.w3.org/1999/xlink" width="3" height="3" viewBox="0.639 0.569 1.5 1.774"><path paint-order="stroke fill markers" fill-rule="evenodd" d="M2.138 2.169a1.71 1.71 0 0 1-.133-.95c-.187.054-.277.208-.303.49A1.885 1.885 0 0 0 .64.57l1.249 1.774a.542.542 0 0 1 .25-.174"/></svg></svg><svg width="3" height="4" xmlns="http://www.w3.org/2000/svg" xmlns:xlink="http://www.w3.org/1999/xlink" xmlns:svgjs="http://svgjs.com/svgjs" viewBox="0 0.34 3 3.32" fill="#111211" x="806" y="467"><svg xmlns="http://www.w3.org/2000/svg" xmlns:xlink="http://www.w3.org/1999/xlink" width="3" height="4" viewBox="0.649 0.963 2.145 2.373"><path paint-order="stroke fill markers" fill-rule="evenodd" d="M1.573.963c-.038.51-.588.379-.122 1.531-.42-.428-.546-.394-.802-.352.449.568.42.968.846 1.194a.48.48 0 0 1 .394-.2c.149 0 .29.068.383.184.335-.23.22-.62.521-1.177-.266-.042-.404-.08-.719.352.176-1.153-.337-1.022-.5-1.532z"/></svg></svg><svg width="3" height="4" xmlns="http://www.w3.org/2000/svg" xmlns:xlink="http://www.w3.org/1999/xlink" xmlns:svgjs="http://svgjs.com/svgjs" viewBox="0 0.337 3 3.326" fill="#111211" x="813" y="467"><svg xmlns="http://www.w3.org/2000/svg" xmlns:xlink="http://www.w3.org/1999/xlink" width="3" height="4" viewBox="0.402 0.963 2.141 2.373"><path paint-order="stroke fill markers" fill-rule="evenodd" d="M1.614.963c.04.51.595.379.124 1.531.421-.428.547-.394.805-.352-.449.568-.422.968-.845 1.194a.488.488 0 0 0-.776-.016C.59 3.09.703 2.7.402 2.143c.267-.042.405-.08.718.352-.183-1.153.33-1.025.494-1.531"/></svg></svg><svg width="10" height="5" xmlns="http://www.w3.org/2000/svg" xmlns:xlink="http://www.w3.org/1999/xlink" xmlns:svgjs="http://svgjs.com/svgjs" viewBox="0 0.085 10 4.83" fill="#111211" x="806" y="465"><svg xmlns="http://www.w3.org/2000/svg" xmlns:xlink="http://www.w3.org/1999/xlink" width="10" height="5" viewBox="0.912 0.064 8.369 4.042"><path paint-order="stroke fill markers" fill-rule="evenodd" d="M1.167 4.066a.994.994 0 0 1 .14-.904.946.946 0 0 0 .217-.661c.056.25.189.477.38.648.254.245.381.595.344.946a.631.631 0 0 1 .177-.108c-.02-.127-.04-.258-.066-.405C1.952 1.782 2.57.18 4.28.365c.158.017.399.09.378.27-.11 1.015-.224 2.038-.337 3.057a2.23 2.23 0 0 0-.027.305.764.764 0 0 1 .208.108.968.968 0 0 1 .268-.952c.138-.143.247-.312.322-.496.078.183.188.35.324.494.257.244.361.61.271.952a.795.795 0 0 1 .197-.106c0-.102-.006-.204-.018-.307-.11-1.02-.224-2.042-.336-3.056A.183.183 0 0 1 5.6.476a.604.604 0 0 1 .309-.11C7.62.178 8.239 1.783 7.827 3.581c-.024.144-.045.277-.062.404.068.024.13.06.182.109a1.17 1.17 0 0 1 .344-.946c.193-.171.325-.398.38-.648a.968.968 0 0 0 .219.66.99.99 0 0 1 .14.905.682.682 0 0 1 .17-.079c.044-.167.07-.34.08-.514a4.732 4.732 0 0 0-.146-1.304.485.485 0 0 1-.332.13.476.476 0 0 1 0-.952 2.92 2.92 0 0 0-.35-.507.475.475 0 0 1-.34.144.468.468 0 0 1-.394-.726 1.884 1.884 0 0 0-.504-.17.443.443 0 0 1-.637-.024c-.304.038-.6.128-.874.265l-.096.049-.036.016c-.038.02-.078.036-.114.053h-.006-.006-.007-.005l-.045.02-.027.01-.017.006H5.34L5.288.5h-.004-.005l-.016.003h-.006l-.014.005H5.24h-.015a.683.683 0 0 1-.223 0h-.015L4.967.503h-.01-.005-.012-.006V.499h-.011l-.01-.005H4.91h-.008-.004L4.884.487 4.869.482h-.006-.007-.005-.008L4.835.478l-.01-.005h-.004-.008l-.01-.007-.007-.004h-.042a2.04 2.04 0 0 1-.167-.079L4.488.335a2.714 2.714 0 0 0-.872-.266.439.439 0 0 1-.62.04L2.98.093a1.862 1.862 0 0 0-.507.169.467.467 0 0 1-.389.727.476.476 0 0 1-.341-.145 2.868 2.868 0 0 0-.352.507.473.473 0 1 1-.33.822C.948 2.6.9 3.04.914 3.48c.008.172.035.344.079.51a.78.78 0 0 1 .176.084l-.003-.007m3.93-2.864a.48.48 0 1 1-.468.49v-.013a.48.48 0 0 1 .468-.477z"/></svg></svg><svg width="81" height="51" xmlns="http://www.w3.org/2000/svg" xmlns:xlink="http://www.w3.org/1999/xlink" xmlns:svgjs="http://svgjs.com/svgjs" viewBox="0 0.134 81 50.733" fill="#ac7942" x="765" y="461"><svg xmlns="http://www.w3.org/2000/svg" xmlns:xlink="http://www.w3.org/1999/xlink" width="81" height="51" viewBox="0 0.485 80.489 50.412"><path paint-order="stroke fill markers" fill-rule="evenodd" d="M80.337 14.65a3.476 3.476 0 0 0-1.663.283c-1.32.656-2.338 2.493-3.106 3.699-1.528 2.384-3.046 5.054-5.052 6.51a2.58 2.58 0 0 1-1.182.485c-.357.016-.442-.23-.457-.61-.079-2.15 1.723-4.865 2.924-6.65a33.687 33.687 0 0 1 2.601-3.334c.13-.15.116-.223-.04-.22-1.34.11-2.585.74-3.469 1.754a12.618 12.618 0 0 0-2.14 2.813 10.943 10.943 0 0 0-.86 1.607c-.068.158-.138.32-.194.483l-.038.043c-.063.084-.122.163-.184.237-1.781 2.286-3.055 3.316-3.88 3.67-.467.2-1.099.284-1.178-.364-.027-.436.059-.87.251-1.262a18.037 18.037 0 0 1 1.694-2.643c1.16-1.652 2.275-3.646 1.546-5.008-.382-.715-1.784-1.179-2.452-1.57-.872-.536 1.163-1.704 2.493-2.918.253-.183.19-.334-.19-.453-2.884-.124-3.74 2.14-3.374 3.09a70.224 70.224 0 0 1-2.231 3.859c-1.45 2.318-3.38 5.825-5.684 7.224-.487.295-.982.402-1.238-.086-.394-.748.268-2.3 1.065-3.938a51.568 51.568 0 0 1 3.82-6.386c.157-.237.265-.361-.228-.354-1.598.026-2.933 1.656-4.619 4.337-.63 1.01-1.216 2.129-2.075 3.403a10.11 10.11 0 0 1-2.438 2.783 2.636 2.636 0 0 1-1.182.485c-.84.042-.483-1.41-.08-2.542a28.64 28.64 0 0 1 5.088-7.97c.29-.316.06-.302-.207-.285-1.251.182-2.4.8-3.24 1.744a12.803 12.803 0 0 0-2.142 2.813c-.439.67-.796 1.39-1.065 2.144-1.53 2.118-2.854 3.436-3.791 3.777-1.52.557-1.792-.605-1.595-2.024a9.72 9.72 0 0 1 2.017-4.684c1.475-1.955 2.906-3.18 4.76-2.806.179.033.367.122.192-.242-.617-1.267-2.564-2.173-5.862 3.359 2.018-3.338-.778-6.254-3.59-3.005a39.098 39.098 0 0 0-3.034 4.498 21.354 21.354 0 0 1-3.682 4.55c-.621.543-1.46 1.032-1.813.346-.39-.748.269-2.3 1.064-3.938a51.721 51.721 0 0 1 3.72-6.248c.333-.473.236-.504-.254-.482-1.546.104-2.856 1.714-4.494 4.336-.636 1.01-1.215 2.129-2.075 3.403a10.07 10.07 0 0 1-2.437 2.783 2.647 2.647 0 0 1-1.182.485c-.341.017-.485-.213-.51-.566-.08-1.2.66-2.523 1.177-3.56a27.545 27.545 0 0 1 4.232-6.267c.328-.379.25-.434-.1-.41a5.4 5.4 0 0 0-3.24 1.744 14.391 14.391 0 0 0-3.102 4.7 8.896 8.896 0 0 0-.46 1.798c-.218 2.034.74 3.311 1.935 3.166 1.194-.145 2.322-1.157 4.118-3.335-.204 2.894 1.19 4.378 3.585 2.496a21.95 21.95 0 0 0 4.258-5.01c.71-1.075 1.363-2.162 2.123-3.205.824-1.131 1.977-2.375 2.688-1.648.243.339.358.753.323 1.169-.017 2.136-2.235 5.766-4.269 7.544a2.88 2.88 0 0 1-2.207.755 3.788 3.788 0 0 1-1.318-.494c-.126-.07-.126.074-.112.173.08.453.327.86.692 1.14.262.216.579.357.915.407 1.589.169 3.406-2.208 4.677-4.159-.911 3.295.35 4.29 1.709 4.269 1.07-.018 2.721-1.29 4.597-3.326-.245 2.068.723 3.37 1.93 3.225 1.205-.146 2.321-1.157 4.117-3.335-.182 2.591.916 4.052 2.868 2.978 2.42-1.333 4.474-4.572 6.024-6.89a28.46 28.46 0 0 0 2.345-4.19c.537.315 1.047.558 1.48.783.523.275.576.48.291 1.072a6.956 6.956 0 0 1-.525.875c-.52.764-1.135 1.453-1.656 2.214a7.825 7.825 0 0 0-1.206 2.493c-.322 1.213-.354 2.698.516 3.51.548.52 1.348.674 2.05.397 1.3-.509 2.509-2.218 3.47-3.046h.042c-.206 2.018.751 3.28 1.936 3.135 1.199-.145 2.412-1.172 4.205-3.35-.006.079-.096.174-.1.253a86.784 86.784 0 0 1-7.613 11.475c-5.125 6.367-11.275 10.385-18.926 13.166-6.332 2.304-13.468 3.5-18.499 1.032-4.305-2.115-7.345-9.205.506-8.702 4.839.316 10.782 1.988 15.671 2.94 2.545.497 10.547 1.437 9.444-3.07a2.334 2.334 0 0 0-.492-.9c-.644-.742-.565-.208-.394.182.6 2.236-1.327 4.39-9.335 3.082-4.284-.7-15.036-4.947-18.917-3.302-5.398 2.29.043 8.819 3.706 10.466 5.253 2.365 13.009 1.361 18.3-.377a46.127 46.127 0 0 0 20.283-13.951 71.648 71.648 0 0 0 8.777-12.912c.394-.76.821-1.51 1.23-2.264a36.057 36.057 0 0 1 3.202-5.018c.17-.215.27-.31.028-.337l-.007.004M25.864 29.397c.2-.298.76-1.628.04-1.044-4.484 3.636-7.38-.079-16.039-1.454 5.499-2.542 7.955-7.063 11.117-13.408 1.913-3.831 3.98-9.15 7.508-11.497a6.056 6.056 0 0 1 3.636-.843c2.252.048 3.3.982 4.82 2.532.563.58.648.05.253-.377-.227-.246-.395-.528-.61-.74C35.475 1.452 34.845.776 32.82.55 25.173-.32 21.203 7.86 18.494 13.218c-1.229 2.426-2.226 4.542-3.263 6.428-1.615 2.945-3.35 5.282-6.404 6.938-.394-.116-1.097-.265-1.531-.356-2.81-.599-7.648-1.233-7.276.177.546 2.074 6.922 1.025 9.049.802 2.377.567 9.015 4.494 13.51 4.1a4.446 4.446 0 0 0 3.287-1.904l-.002-.006"/></svg></svg><svg width="50" height="20" xmlns="http://www.w3.org/2000/svg" xmlns:xlink="http://www.w3.org/1999/xlink" xmlns:svgjs="http://svgjs.com/svgjs" viewBox="784 526 50 20" x="784" y="526"><svg width="13" height="9" xmlns="http://www.w3.org/2000/svg" xmlns:xlink="http://www.w3.org/1999/xlink" xmlns:svgjs="http://svgjs.com/svgjs" viewBox="0 0.21 13 8.58" fill="#161615" x="784" y="526"><svg xmlns="http://www.w3.org/2000/svg" xmlns:xlink="http://www.w3.org/1999/xlink" width="13" height="9" viewBox="0.194 0.895 11.896 7.852"><path paint-order="stroke fill markers" fill-rule="evenodd" d="M.514.895c.532 0 .803.036 1.3.036.32 0 .899-.036 1.006-.036.225 0 .307.059.307.141 0 .084-.071.167-.32.237-.378.095-.413.272-.343.461.237.592 1.455 3.43 2.283 5.216.023.035.07.058.107.012.082-.155.602-1.16.969-1.999a.208.208 0 0 0-.012-.165c-.45-1.077-.946-2.2-1.147-2.591-.331-.686-.401-.815-.862-.945-.214-.06-.285-.13-.285-.213 0-.095.165-.13.343-.13.165 0 .627.012 1.005.012.544 0 1.029-.036 1.147-.036.154 0 .296.047.296.141 0 .095-.107.19-.284.226-.461.094-.497.189-.355.567.118.284.39.887.816 1.845.024.047.083.036.095 0 .284-.58.485-1.006.721-1.538.296-.65.12-.78-.343-.898-.142-.035-.26-.13-.26-.178 0-.082.071-.153.355-.153.213 0 .426.024.816.024.366 0 .78-.024.97-.024.165 0 .26.035.26.118 0 .118-.095.165-.332.237-.425.106-.591.248-.934.84-.118.2-.437.756-1.076 2.01-.023.047 0 .177.024.212.426.97.946 2.117 1.194 2.554.024.072.071.095.119 0 .532-1.11 1.419-3.11 2.105-4.718.224-.544.153-.757-.38-.91-.152-.047-.283-.13-.283-.201 0-.107.118-.142.32-.142.272 0 .58.024.804.024.367 0 .745-.036 1.112-.036.212 0 .318.047.318.13 0 .095-.094.165-.307.213-.45.106-.662.26-.993.898-.142.285-.887 1.703-1.68 3.466-.804 1.832-.875 1.986-1.194 2.79-.047.13-.189.296-.295.296-.048 0-.154-.047-.2-.237-.226-.709-.865-2.01-1.29-3.003-.024-.035-.072-.06-.095-.024-.414.852-1.065 2.176-1.372 3.051-.06.13-.225.272-.296.272-.094 0-.142-.047-.213-.225-.118-.307-.26-.792-.733-1.88-.45-1.064-1.549-3.606-1.975-4.435-.295-.58-.355-.827-.946-.958-.13-.035-.307-.106-.307-.213 0-.07.13-.141.32-.141z"/></svg></svg><svg width="4" height="9" xmlns="http://www.w3.org/2000/svg" xmlns:xlink="http://www.w3.org/1999/xlink" xmlns:svgjs="http://svgjs.com/svgjs" viewBox="0.034 0 3.933 9" fill="#161615" x="796" y="526"><svg xmlns="http://www.w3.org/2000/svg" xmlns:xlink="http://www.w3.org/1999/xlink" width="4" height="9" viewBox="0.198 0.895 3.359 7.686"><path paint-order="stroke fill markers" fill-rule="evenodd" d="M1.25 2.113c-.036-.556-.036-.733-.673-.851-.272-.06-.343-.142-.343-.213 0-.095.13-.154.318-.154.308 0 .912.036 1.302.036.578 0 .874-.036 1.288-.036.201 0 .32.047.32.154 0 .094-.13.165-.32.2-.661.13-.673.426-.71.746-.047.377-.07 1.064-.07 3.334 0 .805.012 1.49.035 1.87.048.65.095.862.84 1.016.213.047.32.119.32.212 0 .095-.19.154-.331.154-.58 0-1.408-.07-1.762-.07-.356 0-.51.023-.947.023-.236 0-.319-.083-.319-.177 0-.082.107-.154.354-.202.58-.13.627-.318.675-.862.036-.426.06-1.656.06-2.66 0-.699-.014-2.118-.036-2.52z"/></svg></svg><svg width="9" height="9" xmlns="http://www.w3.org/2000/svg" xmlns:xlink="http://www.w3.org/1999/xlink" xmlns:svgjs="http://svgjs.com/svgjs" viewBox="0 0.431 9 8.138" fill="#161615" x="800" y="526"><svg xmlns="http://www.w3.org/2000/svg" xmlns:xlink="http://www.w3.org/1999/xlink" width="9" height="9" viewBox="0.159 0.883 8.657 7.828"><path paint-order="stroke fill markers" fill-rule="evenodd" d="M.526.895c.272 0 .922.036 1.526.036.071 0 .188.082.26.153.178.213.473.58.934 1.171.544.686 3.087 3.417 3.844 4.245.07.072.118-.048.118-.083.059-.367.023-1.655.023-3.216 0-.403-.035-.84-.059-1.195-.012-.248-.106-.531-.744-.71-.238-.07-.331-.153-.331-.26 0-.082.153-.118.318-.118.296 0 .615.013.97.013.45 0 .852-.048 1.159-.048.2 0 .272.048.272.13 0 .083-.071.19-.283.236-.521.143-.71.272-.746.876-.036.414-.13 2.897-.13 4.706 0 .497.083 1.42.083 1.633 0 .117-.083.247-.178.247-.189 0-.437-.26-.556-.401-.2-.26-.425-.556-.744-.946C5.151 6.039 3.14 3.78 2.075 2.514c-.047-.058-.142-.023-.142.025 0 .32-.047.65-.047 1.572 0 1.183-.048 2.802 0 3.217.036.509.166.697.745.863.236.06.295.143.295.214 0 .117-.153.165-.377.165-.344 0-.793-.059-1.218-.059-.26 0-.64.023-.84.023-.166 0-.308-.023-.308-.13 0-.106.118-.178.237-.213.556-.177.792-.225.84-1.111.058-1.03.224-3.749.224-4.708 0-.436-.059-.555-.095-.59-.296-.355-.413-.414-.969-.544-.13-.035-.26-.107-.26-.19C.16.955.277.896.525.896z"/></svg></svg><svg width="10" height="9" xmlns="http://www.w3.org/2000/svg" xmlns:xlink="http://www.w3.org/1999/xlink" xmlns:svgjs="http://svgjs.com/svgjs" viewBox="0.024 0 9.953 9" fill="#161615" x="809" y="526"><svg xmlns="http://www.w3.org/2000/svg" xmlns:xlink="http://www.w3.org/1999/xlink" width="10" height="9" viewBox="0.372 0.883 8.657 7.828"><path paint-order="stroke fill markers" fill-rule="evenodd" d="M.738.895c.273 0 .923.036 1.526.036.07 0 .19.082.26.153.177.213.473.58.934 1.171.544.686 3.087 3.417 3.844 4.245.07.072.117-.048.117-.083.06-.367.025-1.655.025-3.216 0-.403-.036-.84-.06-1.195-.011-.248-.106-.531-.744-.71-.238-.07-.331-.153-.331-.26 0-.082.153-.118.319-.118.295 0 .615.013.97.013.448 0 .851-.048 1.158-.048.202 0 .272.048.272.13 0 .083-.07.19-.283.236-.52.143-.71.272-.745.876-.036.414-.13 2.897-.13 4.706 0 .497.082 1.42.082 1.633 0 .117-.082.247-.177.247-.19 0-.438-.26-.556-.401-.201-.26-.426-.556-.745-.946-1.112-1.325-3.122-3.584-4.186-4.85-.048-.058-.142-.023-.142.025 0 .32-.048.65-.048 1.572 0 1.183-.047 2.802 0 3.217.036.509.166.697.745.863.237.06.296.143.296.214 0 .117-.154.165-.378.165-.343 0-.793-.059-1.219-.059-.26 0-.638.023-.84.023-.165 0-.307-.023-.307-.13 0-.106.119-.178.237-.213.556-.177.792-.225.84-1.111.059-1.03.224-3.749.224-4.708 0-.436-.058-.555-.094-.59-.295-.355-.414-.414-.97-.544-.13-.035-.26-.107-.26-.19C.372.955.49.896.738.896z"/></svg></svg><svg width="7" height="9" xmlns="http://www.w3.org/2000/svg" xmlns:xlink="http://www.w3.org/1999/xlink" xmlns:svgjs="http://svgjs.com/svgjs" viewBox="0 0.159 7 8.683" fill="#161615" x="818" y="526"><svg xmlns="http://www.w3.org/2000/svg" xmlns:xlink="http://www.w3.org/1999/xlink" width="7" height="9" viewBox="0.608 0.882 6.217 7.711"><path paint-order="stroke fill markers" fill-rule="evenodd" d="M4.83.93c.39 0 .898-.012 1.087-.047.036-.012.095.083.107.142 0 .473.023.91.023 1.147 0 .166-.082.32-.189.32-.094 0-.166-.166-.188-.297-.155-.626-.426-.756-.78-.815-.286-.048-1.078-.071-1.68-.06-.025 0-.142.06-.166.344-.024.283-.059 2.4-.035 2.672 0 .048.023.106.094.106h.793c1.063 0 1.088-.035 1.3-.579.07-.178.154-.26.224-.26.095 0 .12.177.107.283-.023.32-.036.556-.036.84 0 .32.024.485.036.746 0 .213-.047.33-.142.33-.082 0-.166-.13-.2-.248-.166-.544-.237-.59-.9-.626-.378-.025-.85-.025-1.182-.025-.048 0-.107.084-.107.107-.046.272-.035 1.336-.035 1.821 0 .332.035.78.094.97.06.142.155.248.237.272.202.036.604.082 1.052.082.19 0 .852-.01 1.125-.094.366-.106.685-.331.957-.875.142-.273.224-.343.296-.343.095 0 .118.2.095.33 0 .095-.344 1.16-.426 1.29-.036.048-.166.13-.225.13-.13 0-2.153-.082-3.868-.082-.65 0-.887.06-1.323.06-.225 0-.367-.025-.367-.155 0-.095.142-.154.331-.201.602-.13.816-.236.863-.876.035-.484.083-1.773.083-3.24 0-1.419.023-1.727 0-2.07-.035-.496-.154-.66-.662-.767-.248-.06-.355-.107-.355-.202 0-.106.178-.165.343-.165.556 0 1.123.036 1.869.036h1.75z"/></svg></svg><svg width="9" height="9" xmlns="http://www.w3.org/2000/svg" xmlns:xlink="http://www.w3.org/1999/xlink" xmlns:svgjs="http://svgjs.com/svgjs" viewBox="0.192 0 8.616 9" fill="#161615" x="825" y="526"><svg xmlns="http://www.w3.org/2000/svg" xmlns:xlink="http://www.w3.org/1999/xlink" width="9" height="9" viewBox="0.574 0.871 7.438 7.769"><path paint-order="stroke fill markers" fill-rule="evenodd" d="M5.292 4.454c-.059.048-.296.154-.39.213-.047.024-.072.142-.047.178.14.318 1.135 1.927 1.82 2.708.32.378.65.58 1.136.686.106.023.2.118.2.166 0 .059-.105.117-.176.142-.155.07-.461.094-.686.094-.662 0-1.289-.356-1.608-.769a36.441 36.441 0 0 1-1.479-2.235c-.165-.237-.379-.532-.45-.568-.07-.059-.461-.153-.792-.153-.07 0-.13.094-.13.13-.023.213 0 1.726.035 2.377.036.508.143.662.71.803.202.049.284.143.284.19 0 .13-.224.165-.308.165-.472 0-.768-.07-1.525-.07-.249 0-.863.046-.993.046-.177 0-.32-.058-.32-.176 0-.083.107-.12.26-.178.533-.165.722-.248.758-.685.035-.474.07-1.668.07-2.45 0-1.701-.011-2.766-.07-3.203-.036-.39-.142-.462-.686-.592-.178-.035-.285-.106-.285-.2C.62.99.704.93.94.93h.71c.437 0 1.3-.06 1.94-.06.756 0 1.465.095 1.962.509.379.307.662.898.662 1.454 0 .64-.354 1.254-.922 1.62zm-.733-2.767c-.285-.272-.769-.45-1.135-.45-.06 0-.414.025-.544.083-.06.024-.13.213-.142.249-.036.426-.071 2.649-.036 2.885.023.083.118.166.178.166.674 0 1.288-.2 1.443-.296.319-.213.756-.71.756-1.442 0-.296-.165-.84-.52-1.195z"/></svg></svg><svg width="6" height="8" xmlns="http://www.w3.org/2000/svg" xmlns:xlink="http://www.w3.org/1999/xlink" xmlns:svgjs="http://svgjs.com/svgjs" viewBox="0.276 0 5.448 8" fill="#161615" x="797" y="538"><svg xmlns="http://www.w3.org/2000/svg" xmlns:xlink="http://www.w3.org/1999/xlink" width="6" height="8" viewBox="0.264 0.098 5.105 7.497"><path paint-order="stroke fill markers" fill-rule="evenodd" d="M.268 7.442c-.024-.059.06-.189.154-.272.532-.484 1.324-1.455 1.88-2.152.65-.84 1.183-1.786 1.183-2.614 0-1.017-.627-1.443-1.326-1.443-.65 0-1.147.367-1.454.722-.13.165-.201.248-.248.248-.035 0-.13-.118-.13-.177 0-.095.047-.214.166-.39C1.024.56 1.77.097 2.633.097c1.087 0 1.927.91 1.927 2.022 0 .674-.449 1.479-.945 2.07-.651.745-1.302 1.49-2.14 2.39-.024.022 0 .082.035.093.507.035 2.329.035 2.707-.023.331-.048.509-.13.804-.45.071-.094.178-.2.238-.2.117 0 .153.165.046.39-.225.472-.342.792-.39 1.099-.024.083-.118.106-.178.106-.059 0-2.47-.046-3.015-.046-.307 0-.804.01-1.206.035-.071.01-.237-.06-.248-.142z"/></svg></svg><svg width="6" height="8" xmlns="http://www.w3.org/2000/svg" xmlns:xlink="http://www.w3.org/1999/xlink" xmlns:svgjs="http://svgjs.com/svgjs" viewBox="0.408 0 5.184 8" fill="#161615" x="803" y="538"><svg xmlns="http://www.w3.org/2000/svg" xmlns:xlink="http://www.w3.org/1999/xlink" width="6" height="8" viewBox="0.098 0.098 4.92 7.593"><path paint-order="stroke fill markers" fill-rule="evenodd" d="M5.017 3.788c0 1.916-.686 3.145-1.36 3.57a1.94 1.94 0 0 1-1.1.332C.737 7.667.097 5.444.097 3.953.098 2.05.76.903 1.529.417c.32-.2.663-.319 1.1-.319 1.893 0 2.39 2.401 2.39 3.69zM1.741.926c-.272.414-.567 1.159-.567 2.85 0 1.431.402 3.583 1.537 3.583.402 0 .698-.473.733-.532.26-.497.45-1.395.45-2.956 0-1.963-.556-2.969-.864-3.193-.177-.13-.354-.225-.59-.225-.273 0-.485.13-.699.473z"/></svg></svg><svg width="6" height="8" xmlns="http://www.w3.org/2000/svg" xmlns:xlink="http://www.w3.org/1999/xlink" xmlns:svgjs="http://svgjs.com/svgjs" viewBox="0.276 0 5.448 8" fill="#161615" x="808" y="538"><svg xmlns="http://www.w3.org/2000/svg" xmlns:xlink="http://www.w3.org/1999/xlink" width="6" height="8" viewBox="0.829 0.098 5.106 7.497"><path paint-order="stroke fill markers" fill-rule="evenodd" d="M.833 7.442c-.023-.059.06-.189.155-.272.532-.484 1.324-1.455 1.88-2.152.65-.84 1.183-1.786 1.183-2.614 0-1.017-.627-1.443-1.326-1.443-.65 0-1.147.367-1.454.722-.13.165-.201.248-.248.248-.035 0-.13-.118-.13-.177 0-.095.047-.214.166-.39C1.59.56 2.336.097 3.199.097c1.088 0 1.927.91 1.927 2.022 0 .674-.45 1.479-.945 2.07-.651.745-1.302 1.49-2.14 2.39-.025.022 0 .082.035.093.508.035 2.329.035 2.707-.023.331-.048.509-.13.804-.45.071-.094.178-.2.238-.2.117 0 .153.165.046.39-.224.472-.342.792-.39 1.099-.024.083-.118.106-.178.106-.059 0-2.47-.046-3.015-.046-.307 0-.804.01-1.206.035-.071.01-.237-.06-.249-.142z"/></svg></svg><svg width="4" height="8" xmlns="http://www.w3.org/2000/svg" xmlns:xlink="http://www.w3.org/1999/xlink" xmlns:svgjs="http://svgjs.com/svgjs" viewBox="0.192 0 3.616 8" fill="#161615" x="815" y="538"><svg xmlns="http://www.w3.org/2000/svg" xmlns:xlink="http://www.w3.org/1999/xlink" width="4" height="8" viewBox="0.468 0.098 3.394 7.51"><path paint-order="stroke fill markers" fill-rule="evenodd" d="M.859 7.253c.602-.142.744-.285.803-.769.036-.378.084-1.313.084-3.37 0-1.147-.013-1.561-.048-1.738a.314.314 0 0 0-.248-.249c-.19-.036-.403-.06-.533-.095C.752.985.681.938.681.855c0-.06.13-.154.248-.177.461-.095.97-.178 1.3-.355.225-.119.427-.225.498-.225.059 0 .094.06.094.119 0 .213-.035.532-.035 1.395 0 .84 0 3.134.012 4.528 0 .805.023.923.768 1.101.154.036.296.107.296.224 0 .084-.118.13-.284.13-.284 0-.804-.046-1.183-.046-.721 0-1.466.059-1.62.059-.142 0-.307-.024-.307-.13 0-.095.118-.166.39-.225z"/></svg></svg></svg><svg width="50" height="2" xmlns="http://www.w3.org/2000/svg" xmlns:xlink="http://www.w3.org/1999/xlink" xmlns:svgjs="http://svgjs.com/svgjs" viewBox="783 518 50 2" x="783" y="518"><svg width="50" height="1" xmlns="http://www.w3.org/2000/svg" xmlns:xlink="http://www.w3.org/1999/xlink" xmlns:svgjs="http://svgjs.com/svgjs" viewBox="0 0.44 50 0.121" fill="#ac7a41" x="783" y="518"><svg xmlns="http://www.w3.org/2000/svg" xmlns:xlink="http://www.w3.org/1999/xlink" width="50" height="1" viewBox="0.312 0.849 48.977 0.118"><path paint-order="stroke fill markers" fill-rule="evenodd" d="M.312.85H49.29v.117H.312V.85z"/></svg></svg><svg width="50" height="2" xmlns="http://www.w3.org/2000/svg" xmlns:xlink="http://www.w3.org/1999/xlink" xmlns:svgjs="http://svgjs.com/svgjs" viewBox="0 0.741 50 0.519" fill="#ad7941" x="783" y="518"><svg xmlns="http://www.w3.org/2000/svg" xmlns:xlink="http://www.w3.org/1999/xlink" width="50" height="2" viewBox="0.115 0.652 49.371 0.512"><path paint-order="stroke fill markers" fill-rule="evenodd" d="M.115.652h49.372v.512H.115V.652z"/></svg></svg></svg><svg width="72" height="104" xmlns="http://www.w3.org/2000/svg" xmlns:xlink="http://www.w3.org/1999/xlink" xmlns:svgjs="http://svgjs.com/svgjs" viewBox="772 453 72 104" x="772" y="453"><svg width="72" height="71" xmlns="http://www.w3.org/2000/svg" xmlns:xlink="http://www.w3.org/1999/xlink" xmlns:svgjs="http://svgjs.com/svgjs" viewBox="0 0.382 72 70.237" fill="#ac7a41" x="772" y="486"><svg xmlns="http://www.w3.org/2000/svg" xmlns:xlink="http://www.w3.org/1999/xlink" width="72" height="71" viewBox="0.39 0.922 70.823 69.089"><path paint-order="stroke fill markers" fill-rule="evenodd" d="M70.03.922v62.706c0 2.867-2.333 5.2-5.2 5.2H6.772a5.207 5.207 0 0 1-5.2-5.2V8.613H.39v55.015a6.39 6.39 0 0 0 6.383 6.383H64.83a6.39 6.39 0 0 0 6.384-6.383V.922H70.03z"/></svg></svg><svg width="72" height="28" xmlns="http://www.w3.org/2000/svg" xmlns:xlink="http://www.w3.org/1999/xlink" xmlns:svgjs="http://svgjs.com/svgjs" viewBox="0 0.387 72 27.226" fill="#ac7a41" x="772" y="453"><svg xmlns="http://www.w3.org/2000/svg" width="72" height="28" viewBox="0.39 0.5 70.823 26.781"><path paint-order="stroke fill markers" fill-rule="evenodd" d="M1.572 6.884a5.207 5.207 0 0 1 5.201-5.202H64.83a5.207 5.207 0 0 1 5.201 5.202v11.832h1.183V6.884A6.39 6.39 0 0 0 64.829.5H6.773A6.39 6.39 0 0 0 .39 6.884V27.28h1.182V6.884z"/></svg></svg></svg></svg>