<?xml version="1.0" encoding="UTF-8"?>
<svg width="298px" height="356px" viewBox="0 0 298 356" version="1.1" xmlns="http://www.w3.org/2000/svg" xmlns:xlink="http://www.w3.org/1999/xlink">
    <!-- Generator: Sketch 52.2 (67145) - http://www.bohemiancoding.com/sketch -->
    <title>ratedexcellent-badge-2</title>
    <desc>Created with Sketch.</desc>
    <defs>
        <path d="M165.393521,10.3112985 L282.022341,82.0450302 C291.489915,87.8681571 297.25764,98.1870196 297.25764,109.302044 L297.25764,256.360574 C297.25764,267.475598 291.489915,277.794461 282.022341,283.617587 L165.393521,355.351319 C155.111628,361.675301 142.146011,361.675301 131.864119,355.351319 L15.2352989,283.617587 C5.76772478,277.794461 5.66325842e-14,267.475598 3.55271368e-14,256.360574 L1.42108547e-14,109.302044 C7.91359444e-15,98.1870196 5.76772478,87.8681571 15.2352989,82.0450302 L131.864119,10.3112985 C142.146011,3.98731676 155.111628,3.98731676 165.393521,10.3112985 Z" id="path-1"></path>
    </defs>
    <g id="ratedexcellent-badge-2" stroke="none" stroke-width="1" fill="none" fill-rule="evenodd">
        <g id="Rectangle-2" transform="translate(0.000000, -5.000000)">
            <mask id="mask-2" fill="white">
                <use xlink:href="#path-1"></use>
            </mask>
            <use id="Mask" fill="#000032" fill-rule="nonzero" xlink:href="#path-1"></use>
        </g>
        <path d="M86.1495,123.473 L94.9215,123.473 C96.7575092,123.473 98.1344954,123.065004 99.0525,122.249 C99.9705046,121.432996 100.4295,120.107009 100.4295,118.271 C100.4295,116.502991 99.9705046,115.219504 99.0525,114.4205 C98.1344954,113.621496 96.7575092,113.222 94.9215,113.222 L86.1495,113.222 L86.1495,123.473 Z M78.1425,107 L97.7775,107 C99.4095082,107 100.879993,107.263497 102.189,107.7905 C103.498007,108.317503 104.619995,109.039995 105.555,109.958 C106.490005,110.876005 107.203998,111.938494 107.697,113.1455 C108.190002,114.352506 108.4365,115.652993 108.4365,117.047 C108.4365,119.189011 107.986005,121.041992 107.085,122.606 C106.183995,124.170008 104.71351,125.359996 102.6735,126.176 L102.6735,126.278 C103.659505,126.550001 104.475497,126.966497 105.1215,127.5275 C105.767503,128.088503 106.294498,128.751496 106.7025,129.5165 C107.110502,130.281504 107.407999,131.122995 107.595,132.041 C107.782001,132.959005 107.9095,133.876995 107.9775,134.795 C108.0115,135.373003 108.0455,136.052996 108.0795,136.835 C108.1135,137.617004 108.173,138.415996 108.258,139.232 C108.343,140.048004 108.478999,140.821496 108.666,141.5525 C108.853001,142.283504 109.133498,142.903997 109.5075,143.414 L101.5005,143.414 C101.058498,142.257994 100.786501,140.881008 100.6845,139.283 C100.582499,137.684992 100.429501,136.155007 100.2255,134.693 C99.9534986,132.78899 99.3755044,131.395004 98.4915,130.511 C97.6074956,129.626996 96.16251,129.185 94.1565,129.185 L86.1495,129.185 L86.1495,143.414 L78.1425,143.414 L78.1425,107 Z M113.8935,125.156 C113.995501,123.455991 114.420496,122.045006 115.1685,120.923 C115.916504,119.800994 116.868494,118.900003 118.0245,118.22 C119.180506,117.539997 120.480993,117.055501 121.926,116.7665 C123.371007,116.477499 124.824493,116.333 126.2865,116.333 C127.612507,116.333 128.955493,116.426499 130.3155,116.6135 C131.675507,116.800501 132.916494,117.165997 134.0385,117.71 C135.160506,118.254003 136.078496,119.010495 136.7925,119.9795 C137.506504,120.948505 137.8635,122.231992 137.8635,123.83 L137.8635,137.549 C137.8635,138.739006 137.931499,139.877995 138.0675,140.966 C138.203501,142.054005 138.441498,142.869997 138.7815,143.414 L131.4375,143.414 C131.301499,143.005998 131.191,142.589502 131.106,142.1645 C131.021,141.739498 130.9615,141.306002 130.9275,140.864 C129.771494,142.054006 128.411508,142.886998 126.8475,143.363 C125.283492,143.839002 123.685508,144.077 122.0535,144.077 C120.795494,144.077 119.622505,143.924002 118.5345,143.618 C117.446495,143.311998 116.494504,142.836003 115.6785,142.19 C114.862496,141.543997 114.225002,140.728005 113.766,139.742 C113.306998,138.755995 113.0775,137.583007 113.0775,136.223 C113.0775,134.726993 113.340997,133.494505 113.868,132.5255 C114.395003,131.556495 115.074996,130.783003 115.908,130.205 C116.741004,129.626997 117.692995,129.193501 118.764,128.9045 C119.835005,128.615499 120.914495,128.386001 122.0025,128.216 C123.090505,128.045999 124.161495,127.910001 125.2155,127.808 C126.269505,127.705999 127.204496,127.553001 128.0205,127.349 C128.836504,127.144999 129.482498,126.847502 129.9585,126.4565 C130.434502,126.065498 130.6555,125.496004 130.6215,124.748 C130.6215,123.965996 130.494001,123.345502 130.239,122.8865 C129.983999,122.427498 129.644002,122.070501 129.219,121.8155 C128.793998,121.560499 128.301003,121.3905 127.74,121.3055 C127.178997,121.2205 126.575503,121.178 125.9295,121.178 C124.501493,121.178 123.379504,121.483997 122.5635,122.096 C121.747496,122.708003 121.271501,123.727993 121.1355,125.156 L113.8935,125.156 Z M130.6215,130.511 C130.315498,130.783001 129.933002,130.995499 129.474,131.1485 C129.014998,131.301501 128.522003,131.428999 127.995,131.531 C127.467997,131.633001 126.915503,131.718 126.3375,131.786 C125.759497,131.854 125.181503,131.938999 124.6035,132.041 C124.059497,132.143001 123.524003,132.278999 122.997,132.449 C122.469997,132.619001 122.011002,132.848499 121.62,133.1375 C121.228998,133.426501 120.914501,133.791998 120.6765,134.234 C120.438499,134.676002 120.3195,135.236997 120.3195,135.917 C120.3195,136.563003 120.438499,137.106998 120.6765,137.549 C120.914501,137.991002 121.237498,138.339499 121.6455,138.5945 C122.053502,138.849501 122.529497,139.027999 123.0735,139.13 C123.617503,139.232001 124.178497,139.283 124.7565,139.283 C126.184507,139.283 127.289496,139.045002 128.0715,138.569 C128.853504,138.092998 129.431498,137.523503 129.8055,136.8605 C130.179502,136.197497 130.409,135.526003 130.494,134.846 C130.579,134.165997 130.6215,133.622002 130.6215,133.214 L130.6215,130.511 Z M152.6535,117.047 L157.9575,117.047 L157.9575,121.892 L152.6535,121.892 L152.6535,134.948 C152.6535,136.172006 152.857498,136.987998 153.2655,137.396 C153.673502,137.804002 154.489494,138.008 155.7135,138.008 C156.121502,138.008 156.512498,137.991 156.8865,137.957 C157.260502,137.923 157.617498,137.872 157.9575,137.804 L157.9575,143.414 C157.345497,143.516001 156.665504,143.584 155.9175,143.618 C155.169496,143.652 154.438504,143.669 153.7245,143.669 C152.602494,143.669 151.540005,143.592501 150.537,143.4395 C149.533995,143.286499 148.650004,142.989002 147.885,142.547 C147.119996,142.104998 146.516502,141.476004 146.0745,140.66 C145.632498,139.843996 145.4115,138.773007 145.4115,137.447 L145.4115,121.892 L141.0255,121.892 L141.0255,117.047 L145.4115,117.047 L145.4115,109.142 L152.6535,109.142 L152.6535,117.047 Z M179.1735,127.4 C178.833498,125.563991 178.230004,124.170005 177.363,123.218 C176.495996,122.265995 175.178509,121.79 173.4105,121.79 C172.254494,121.79 171.294004,121.985498 170.529,122.3765 C169.763996,122.767502 169.152002,123.251997 168.693,123.83 C168.233998,124.408003 167.911001,125.019997 167.724,125.666 C167.536999,126.312003 167.4265,126.889997 167.3925,127.4 L179.1735,127.4 Z M167.3925,131.99 C167.494501,134.336012 168.089495,136.035995 169.1775,137.09 C170.265505,138.144005 171.82949,138.671 173.8695,138.671 C175.331507,138.671 176.589495,138.305504 177.6435,137.5745 C178.697505,136.843496 179.343499,136.070004 179.5815,135.254 L185.9565,135.254 C184.936495,138.416016 183.372511,140.676993 181.2645,142.037 C179.156489,143.397007 176.606515,144.077 173.6145,144.077 C171.54049,144.077 169.670508,143.745503 168.0045,143.0825 C166.338492,142.419497 164.927506,141.476006 163.7715,140.252 C162.615494,139.027994 161.723003,137.566009 161.094,135.866 C160.464997,134.165992 160.1505,132.29601 160.1505,130.256 C160.1505,128.28399 160.473497,126.448009 161.1195,124.748 C161.765503,123.047991 162.683494,121.577506 163.8735,120.3365 C165.063506,119.095494 166.482992,118.118004 168.132,117.404 C169.781008,116.689996 171.60849,116.333 173.6145,116.333 C175.858511,116.333 177.813492,116.766496 179.4795,117.6335 C181.145508,118.500504 182.513995,119.664993 183.585,121.127 C184.656005,122.589007 185.429498,124.254991 185.9055,126.125 C186.381502,127.995009 186.551501,129.94999 186.4155,131.99 L167.3925,131.99 Z M209.4165,130.154 C209.4165,129.065995 209.314501,128.020505 209.1105,127.0175 C208.906499,126.014495 208.558002,125.130504 208.065,124.3655 C207.571998,123.600496 206.934504,122.980002 206.1525,122.504 C205.370496,122.027998 204.384506,121.79 203.1945,121.79 C202.004494,121.79 201.001504,122.027998 200.1855,122.504 C199.369496,122.980002 198.715002,123.608996 198.222,124.391 C197.728998,125.173004 197.372001,126.065495 197.151,127.0685 C196.929999,128.071505 196.8195,129.116995 196.8195,130.205 C196.8195,131.225005 196.938499,132.244995 197.1765,133.265 C197.414501,134.285005 197.796997,135.194496 198.324,135.9935 C198.851003,136.792504 199.513996,137.438498 200.313,137.9315 C201.112004,138.424502 202.072494,138.671 203.1945,138.671 C204.384506,138.671 205.378996,138.433002 206.178,137.957 C206.977004,137.480998 207.614498,136.843504 208.0905,136.0445 C208.566502,135.245496 208.906499,134.336005 209.1105,133.316 C209.314501,132.295995 209.4165,131.242005 209.4165,130.154 Z M209.5185,140.048 L209.4165,140.048 C208.566496,141.476007 207.453007,142.504497 206.076,143.1335 C204.698993,143.762503 203.143509,144.077 201.4095,144.077 C199.43749,144.077 197.703507,143.694504 196.2075,142.9295 C194.711493,142.164496 193.479005,141.127507 192.51,139.8185 C191.540995,138.509493 190.810002,137.005008 190.317,135.305 C189.823998,133.604991 189.5775,131.837009 189.5775,130.001 C189.5775,128.232991 189.823998,126.524508 190.317,124.8755 C190.810002,123.226492 191.540995,121.773006 192.51,120.515 C193.479005,119.256994 194.694493,118.245504 196.1565,117.4805 C197.618507,116.715496 199.31849,116.333 201.2565,116.333 C202.820508,116.333 204.307993,116.664497 205.719,117.3275 C207.130007,117.990503 208.243496,118.967994 209.0595,120.26 L209.1615,120.26 L209.1615,107 L216.4035,107 L216.4035,143.414 L209.5185,143.414 L209.5185,140.048 Z M39,158 L66.234,158 L66.234,164.732 L47.007,164.732 L47.007,172.535 L64.653,172.535 L64.653,178.757 L47.007,178.757 L47.007,187.682 L66.642,187.682 L66.642,194.414 L39,194.414 L39,158 Z M78.015,180.542 L69.345,168.047 L77.607,168.047 L82.248,174.932 L86.838,168.047 L94.845,168.047 L86.175,180.389 L95.916,194.414 L87.654,194.414 L82.146,186.101 L76.638,194.414 L68.529,194.414 L78.015,180.542 Z M116.622,177.329 C116.145998,174.302985 114.361015,172.79 111.267,172.79 C110.110994,172.79 109.142004,173.053497 108.36,173.5805 C107.577996,174.107503 106.940502,174.787496 106.4475,175.6205 C105.954498,176.453504 105.606001,177.371495 105.402,178.3745 C105.197999,179.377505 105.096,180.371995 105.096,181.358 C105.096,182.310005 105.197999,183.278995 105.402,184.265 C105.606001,185.251005 105.937498,186.143496 106.3965,186.9425 C106.855502,187.741504 107.475996,188.395997 108.258,188.906 C109.040004,189.416003 109.991994,189.671 111.114,189.671 C112.848009,189.671 114.182495,189.186505 115.1175,188.2175 C116.052505,187.248495 116.638999,185.948008 116.877,184.316 L123.864,184.316 C123.387998,187.818018 122.028011,190.486991 119.784,192.323 C117.539989,194.159009 114.667018,195.077 111.165,195.077 C109.19299,195.077 107.382508,194.745503 105.7335,194.0825 C104.084492,193.419497 102.682006,192.493006 101.526,191.303 C100.369994,190.112994 99.4690032,188.693508 98.823,187.0445 C98.1769968,185.395492 97.854,183.58501 97.854,181.613 C97.854,179.57299 98.151497,177.677509 98.7465,175.9265 C99.341503,174.175491 100.216994,172.662506 101.373,171.3875 C102.529006,170.112494 103.939992,169.118004 105.606,168.404 C107.272008,167.689996 109.175989,167.333 111.318,167.333 C112.882008,167.333 114.386493,167.536998 115.8315,167.945 C117.276507,168.353002 118.568494,168.973496 119.7075,169.8065 C120.846506,170.639504 121.772996,171.676494 122.487,172.9175 C123.201004,174.158506 123.608999,175.628991 123.711,177.329 L116.622,177.329 Z M145.692,178.4 C145.351998,176.563991 144.748504,175.170005 143.8815,174.218 C143.014496,173.265995 141.697009,172.79 139.929,172.79 C138.772994,172.79 137.812504,172.985498 137.0475,173.3765 C136.282496,173.767502 135.670502,174.251997 135.2115,174.83 C134.752498,175.408003 134.429501,176.019997 134.2425,176.666 C134.055499,177.312003 133.945,177.889997 133.911,178.4 L145.692,178.4 Z M133.911,182.99 C134.013001,185.336012 134.607995,187.035995 135.696,188.09 C136.784005,189.144005 138.34799,189.671 140.388,189.671 C141.850007,189.671 143.107995,189.305504 144.162,188.5745 C145.216005,187.843496 145.861999,187.070004 146.1,186.254 L152.475,186.254 C151.454995,189.416016 149.891011,191.676993 147.783,193.037 C145.674989,194.397007 143.125015,195.077 140.133,195.077 C138.05899,195.077 136.189008,194.745503 134.523,194.0825 C132.856992,193.419497 131.446006,192.476006 130.29,191.252 C129.133994,190.027994 128.241503,188.566009 127.6125,186.866 C126.983497,185.165992 126.669,183.29601 126.669,181.256 C126.669,179.28399 126.991997,177.448009 127.638,175.748 C128.284003,174.047992 129.201994,172.577506 130.392,171.3365 C131.582006,170.095494 133.001492,169.118004 134.6505,168.404 C136.299508,167.689996 138.12699,167.333 140.133,167.333 C142.377011,167.333 144.331992,167.766496 145.998,168.6335 C147.664008,169.500504 149.032495,170.664993 150.1035,172.127 C151.174505,173.589007 151.947998,175.254991 152.424,177.125 C152.900002,178.995009 153.070001,180.94999 152.934,182.99 L133.911,182.99 Z M157.422,158 L164.664,158 L164.664,194.414 L157.422,194.414 L157.422,158 Z M170.58,158 L177.822,158 L177.822,194.414 L170.58,194.414 L170.58,158 Z M201.282,178.4 C200.941998,176.563991 200.338504,175.170005 199.4715,174.218 C198.604496,173.265995 197.287009,172.79 195.519,172.79 C194.362994,172.79 193.402504,172.985498 192.6375,173.3765 C191.872496,173.767502 191.260502,174.251997 190.8015,174.83 C190.342498,175.408003 190.019501,176.019997 189.8325,176.666 C189.645499,177.312003 189.535,177.889997 189.501,178.4 L201.282,178.4 Z M189.501,182.99 C189.603001,185.336012 190.197995,187.035995 191.286,188.09 C192.374005,189.144005 193.93799,189.671 195.978,189.671 C197.440007,189.671 198.697995,189.305504 199.752,188.5745 C200.806005,187.843496 201.451999,187.070004 201.69,186.254 L208.065,186.254 C207.044995,189.416016 205.481011,191.676993 203.373,193.037 C201.264989,194.397007 198.715015,195.077 195.723,195.077 C193.64899,195.077 191.779008,194.745503 190.113,194.0825 C188.446992,193.419497 187.036006,192.476006 185.88,191.252 C184.723994,190.027994 183.831503,188.566009 183.2025,186.866 C182.573497,185.165992 182.259,183.29601 182.259,181.256 C182.259,179.28399 182.581997,177.448009 183.228,175.748 C183.874003,174.047992 184.791994,172.577506 185.982,171.3365 C187.172006,170.095494 188.591492,169.118004 190.2405,168.404 C191.889508,167.689996 193.71699,167.333 195.723,167.333 C197.967011,167.333 199.921992,167.766496 201.588,168.6335 C203.254008,169.500504 204.622495,170.664993 205.6935,172.127 C206.764505,173.589007 207.537998,175.254991 208.014,177.125 C208.490002,178.995009 208.660001,180.94999 208.524,182.99 L189.501,182.99 Z M212.808,168.047 L219.693,168.047 L219.693,171.719 L219.846,171.719 C220.764005,170.188992 221.953993,169.075503 223.416,168.3785 C224.878007,167.681497 226.373992,167.333 227.904,167.333 C229.84201,167.333 231.431494,167.596497 232.6725,168.1235 C233.913506,168.650503 234.890996,169.381495 235.605,170.3165 C236.319004,171.251505 236.820499,172.390493 237.1095,173.7335 C237.398501,175.076507 237.543,176.563992 237.543,178.196 L237.543,194.414 L230.301,194.414 L230.301,179.522 C230.301,177.345989 229.961003,175.722505 229.281,174.6515 C228.600997,173.580495 227.394009,173.045 225.66,173.045 C223.68799,173.045 222.260004,173.631494 221.376,174.8045 C220.491996,175.977506 220.05,177.906987 220.05,180.593 L220.05,194.414 L212.808,194.414 L212.808,168.047 Z M252.231,168.047 L257.535,168.047 L257.535,172.892 L252.231,172.892 L252.231,185.948 C252.231,187.172006 252.434998,187.987998 252.843,188.396 C253.251002,188.804002 254.066994,189.008 255.291,189.008 C255.699002,189.008 256.089998,188.991 256.464,188.957 C256.838002,188.923 257.194998,188.872 257.535,188.804 L257.535,194.414 C256.922997,194.516001 256.243004,194.584 255.495,194.618 C254.746996,194.652 254.016004,194.669 253.302,194.669 C252.179994,194.669 251.117505,194.592501 250.1145,194.4395 C249.111495,194.286499 248.227504,193.989002 247.4625,193.547 C246.697496,193.104998 246.094002,192.476004 245.652,191.66 C245.209998,190.843996 244.989,189.773007 244.989,188.447 L244.989,172.892 L240.603,172.892 L240.603,168.047 L244.989,168.047 L244.989,160.142 L252.231,160.142 L252.231,168.047 Z" id="Rated-Excellent" fill="#FFFFFF"></path>
        <g id="logo-white" transform="translate(62.000000, 230.000000)">
            <g id="Trustpilot_brandmark_gr-wht_RGB">
                <g id="Type" transform="translate(45.833628, 15.660761)" fill="#FFFFFF" fill-rule="nonzero">
                    <path d="M0.108025387,0.0958822132 L17.8087566,0.0958822132 L17.8087566,3.51568115 L10.8488353,3.51568115 L10.8488353,22.7400649 L7.02165015,22.7400649 L7.02165015,3.51568115 L0.0925931888,3.51568115 L0.0925931888,0.0958822132 L0.108025387,0.0958822132 Z M17.0525789,6.34420644 L20.3242049,6.34420644 L20.3242049,9.50831948 L20.3859337,9.50831948 C20.4939591,9.06086915 20.6945777,8.62939919 20.9877895,8.2139096 C21.2810012,7.79842001 21.6359418,7.39891079 22.0526111,7.06332304 C22.4692805,6.71175493 22.9322464,6.44008866 23.441509,6.21636349 C23.9507715,6.0086187 24.4754662,5.89675611 25.000161,5.89675611 C25.4013981,5.89675611 25.6946099,5.91273648 25.8489319,5.92871685 C26.0032538,5.94469722 26.1575758,5.97665796 26.32733,5.99263833 L26.32733,9.47635874 C26.0804148,9.42841763 25.8334997,9.3964569 25.5711523,9.36449616 C25.3088049,9.33253542 25.0618898,9.31655505 24.8149746,9.31655505 C24.2285511,9.31655505 23.6729919,9.444398 23.1482972,9.68410354 C22.6236025,9.92380907 22.1760687,10.2913576 21.7902638,10.7547883 C21.4044588,11.2341993 21.0958148,11.8094926 20.8643319,12.5126288 C20.6328489,13.2157651 20.5248235,14.0147835 20.5248235,14.9256645 L20.5248235,22.7240845 L17.0371467,22.7240845 L17.0371467,6.34420644 L17.0525789,6.34420644 Z M42.3613839,22.7400649 L38.9354359,22.7400649 L38.9354359,20.4548722 L38.8737071,20.4548722 C38.4416055,21.2858513 37.8088854,21.9410465 36.9601145,22.4364379 C36.1113436,22.9318293 35.2471405,23.1875152 34.3675052,23.1875152 C32.2841585,23.1875152 30.7718031,22.6601631 29.8458712,21.5894783 C28.9199393,20.5187936 28.4569733,18.9047764 28.4569733,16.7474266 L28.4569733,6.34420644 L31.9446501,6.34420644 L31.9446501,16.3958585 C31.9446501,17.8340917 32.2069975,18.8568353 32.7471244,19.4481089 C33.2718192,20.0393826 34.0279969,20.3430096 34.9847932,20.3430096 C35.7255387,20.3430096 36.3273944,20.231147 36.8212247,19.9914415 C37.3150551,19.7517359 37.7162922,19.4481089 38.009504,19.0485997 C38.318148,18.6650708 38.5341987,18.1856598 38.6730885,17.6423272 C38.8119783,17.0989947 38.8737071,16.507721 38.8737071,15.8685063 L38.8737071,6.36018681 L42.3613839,6.36018681 L42.3613839,22.7400649 Z M48.3027801,17.4825235 C48.4108055,18.5372279 48.7966105,19.2723249 49.460195,19.7037948 C50.1392117,20.1192844 50.941686,20.3430096 51.8830501,20.3430096 C52.2071263,20.3430096 52.577499,20.3110488 52.9941684,20.2631077 C53.4108377,20.2151666 53.8120749,20.103304 54.1670154,19.9594807 C54.5373882,19.8156574 54.8305999,19.5919322 55.0775151,19.3042856 C55.3089981,19.016639 55.4170235,18.6490905 55.4015913,18.1856598 C55.3861591,17.7222291 55.2164049,17.3387002 54.9077609,17.0510536 C54.599117,16.7474266 54.213312,16.5237014 53.7349139,16.331937 C53.2565157,16.1561529 52.7163888,15.9963492 52.0991009,15.8685063 C51.481813,15.7406633 50.864525,15.59684 50.2318049,15.4530167 C49.5836526,15.3091934 48.9509325,15.117429 48.3490767,14.9096842 C47.747221,14.7019394 47.2070941,14.4142927 46.7286959,14.0467442 C46.2502978,13.6951761 45.8644928,13.2317454 45.5867133,12.6724325 C45.2935015,12.1131196 45.1546117,11.4259637 45.1546117,10.5949846 C45.1546117,9.70008391 45.3706625,8.96498694 45.7873318,8.35773292 C46.2040012,7.7504789 46.7441281,7.27106784 47.3768483,6.90351935 C48.0250006,6.53597087 48.7348817,6.28028497 49.5219238,6.12048128 C50.3089659,5.97665796 51.0651436,5.89675611 51.7750247,5.89675611 C52.5929312,5.89675611 53.3799733,5.99263833 54.1207188,6.16842238 C54.8614643,6.34420644 55.5404811,6.63185308 56.1423368,7.04734267 C56.7441925,7.44685189 57.2380229,7.97420407 57.63926,8.61341882 C58.0404972,9.25263358 58.2874123,10.0356717 58.3954377,10.9465527 L54.753439,10.9465527 C54.5836848,10.0836128 54.213312,9.49233911 53.6114563,9.20469247 C53.0096006,8.90106546 52.3151517,8.75724214 51.5435417,8.75724214 C51.2966266,8.75724214 51.0034148,8.77322251 50.6639065,8.82116362 C50.3243981,8.86910472 50.0157541,8.94900657 49.7071102,9.06086915 C49.4138984,9.17273173 49.1669832,9.34851579 48.9509325,9.57224095 C48.7503139,9.79596612 48.6422885,10.0836128 48.6422885,10.4511612 C48.6422885,10.8986116 48.7966105,11.2501797 49.0898222,11.521846 C49.383034,11.7935122 49.768839,12.0172374 50.2472371,12.2090018 C50.7256352,12.3847859 51.2657622,12.5445896 51.8830501,12.6724325 C52.500338,12.8002755 53.1330582,12.9440988 53.7812105,13.0879221 C54.4139306,13.2317454 55.0312185,13.4235099 55.6485064,13.6312546 C56.2657944,13.8389994 56.8059213,14.1266461 57.2843194,14.4941946 C57.7627176,14.8617431 58.1485225,15.3091934 58.4417343,15.8525259 C58.7349461,16.3958585 58.8892681,17.0830143 58.8892681,17.8820328 C58.8892681,18.8568353 58.6732173,19.6718341 58.2411157,20.3589899 C57.8090142,21.0301654 57.2534551,21.5894783 56.5744383,22.0049679 C55.8954216,22.4204575 55.1238117,22.7400649 54.290473,22.9318293 C53.4571343,23.1235938 52.6237956,23.219476 51.8058891,23.219476 C50.8027962,23.219476 49.8768643,23.1076134 49.0280935,22.8679079 C48.1793226,22.6282023 47.438577,22.2766342 46.8212891,21.8132035 C46.2040012,21.3337924 45.7101709,20.7425188 45.3552303,20.0393826 C45.0002897,19.3362463 44.8151034,18.4892868 44.784239,17.5144843 L48.3027801,17.5144843 L48.3027801,17.4825235 Z M59.8151999,6.34420644 L62.4541058,6.34420644 L62.4541058,1.42225283 L65.9417826,1.42225283 L65.9417826,6.34420644 L69.089951,6.34420644 L69.089951,9.04488878 L65.9417826,9.04488878 L65.9417826,17.8021309 C65.9417826,18.1856598 65.9572148,18.5052672 65.9880792,18.7929138 C66.0189436,19.0645801 66.0961046,19.3042856 66.20413,19.49605 C66.3121554,19.6878145 66.4819095,19.8316378 66.7133925,19.92752 C66.9448755,20.0234022 67.2380872,20.0713433 67.6393244,20.0713433 C67.8862396,20.0713433 68.1331547,20.0713433 68.3800699,20.0553629 C68.6269851,20.0393826 68.8739002,20.0074218 69.1208154,19.9435004 L69.1208154,22.7400649 C68.7350105,22.788006 68.3492055,22.8199667 67.994265,22.8679079 C67.6238922,22.915849 67.2535194,22.9318293 66.8677145,22.9318293 C65.9417826,22.9318293 65.2010371,22.8359471 64.645478,22.6601631 C64.0899188,22.484379 63.6423851,22.2127127 63.3337411,21.8611446 C63.009665,21.5095765 62.8090464,21.0781065 62.6855888,20.5507544 C62.5775634,20.0234022 62.5004024,19.4161482 62.4849702,18.7449727 L62.4849702,9.07684952 L59.8460643,9.07684952 L59.8460643,6.34420644 L59.8151999,6.34420644 Z M71.5591027,6.34420644 L74.8615931,6.34420644 L74.8615931,8.56547772 L74.9233219,8.56547772 C75.4171522,7.60665558 76.096169,6.93548009 76.9758043,6.5199905 C77.8554396,6.10450091 78.7968036,5.89675611 79.8307609,5.89675611 C81.080769,5.89675611 82.1610228,6.12048128 83.0869547,6.58391198 C84.0128866,7.0313623 84.7844965,7.65459669 85.4017844,8.45361513 C86.0190724,9.25263358 86.4666061,10.179495 86.7752501,11.2341993 C87.083894,12.2889037 87.238216,13.4235099 87.238216,14.6220375 C87.238216,15.724683 87.0993262,16.7953677 86.8215467,17.8181113 C86.5437671,18.8568353 86.1270978,19.7677163 85.5715386,20.5667347 C85.0159795,21.3657532 84.3060984,21.9889876 83.4418953,22.4683986 C82.5776922,22.9478097 81.5745993,23.1875152 80.4017522,23.1875152 C79.8924897,23.1875152 79.3832272,23.1395741 78.8739646,23.0436919 C78.3647021,22.9478097 77.8708718,22.788006 77.4079058,22.5802612 C76.9449399,22.3725164 76.4974061,22.1008501 76.1116012,21.7652624 C75.710364,21.4296747 75.3862879,21.0461458 75.1085083,20.6146758 L75.0467795,20.6146758 L75.0467795,28.7966247 L71.5591027,28.7966247 L71.5591027,6.34420644 Z M83.7505392,14.558116 C83.7505392,13.8230191 83.657946,13.1039025 83.4727597,12.4007662 C83.2875733,11.69763 83.0097937,11.090376 82.639421,10.5470435 C82.2690482,10.0037109 81.8060823,9.57224095 81.2659553,9.25263358 C80.7103962,8.9330262 80.0776761,8.75724214 79.367795,8.75724214 C77.9017361,8.75724214 76.7906179,9.28459431 76.0498724,10.3392987 C75.3091269,11.394003 74.9387541,12.8002755 74.9387541,14.558116 C74.9387541,15.3890952 75.0313473,16.1561529 75.2319659,16.8592892 C75.4325844,17.5624254 75.710364,18.1696794 76.1116012,18.6810512 C76.4974061,19.192423 76.9603721,19.5919322 77.500499,19.8795789 C78.0406259,20.1832059 78.6733461,20.3270292 79.3832272,20.3270292 C80.1857015,20.3270292 80.849286,20.1512451 81.4048451,19.8156574 C81.9604043,19.4800697 82.407938,19.0326193 82.7628786,18.5052672 C83.1178191,17.9619346 83.3801665,17.3546806 83.5344885,16.6675247 C83.6733782,15.9803689 83.7505392,15.2772326 83.7505392,14.558116 Z M89.9079863,0.0958822132 L93.3956631,0.0958822132 L93.3956631,3.51568115 L89.9079863,3.51568115 L89.9079863,0.0958822132 Z M89.9079863,6.34420644 L93.3956631,6.34420644 L93.3956631,22.7400649 L89.9079863,22.7400649 L89.9079863,6.34420644 Z M96.5129671,0.0958822132 L100.000644,0.0958822132 L100.000644,22.7400649 L96.5129671,22.7400649 L96.5129671,0.0958822132 Z M110.695157,23.1875152 C109.429717,23.1875152 108.303166,22.9637901 107.315506,22.5323201 C106.327845,22.1008501 105.494506,21.4935961 104.800057,20.7425188 C104.121041,19.9754611 103.596346,19.0645801 103.241405,18.0098757 C102.886465,16.9551714 102.701279,15.7886044 102.701279,14.5261553 C102.701279,13.2796865 102.886465,12.1291 103.241405,11.0743956 C103.596346,10.0196913 104.121041,9.10881026 104.800057,8.34175255 C105.479074,7.57469485 106.327845,6.9834212 107.315506,6.55195124 C108.303166,6.12048128 109.429717,5.89675611 110.695157,5.89675611 C111.960597,5.89675611 113.087148,6.12048128 114.074809,6.55195124 C115.062469,6.9834212 115.895808,7.59067521 116.590257,8.34175255 C117.269274,9.10881026 117.793968,10.0196913 118.148909,11.0743956 C118.503849,12.1291 118.689036,13.2796865 118.689036,14.5261553 C118.689036,15.7886044 118.503849,16.9551714 118.148909,18.0098757 C117.793968,19.0645801 117.269274,19.9754611 116.590257,20.7425188 C115.91124,21.5095765 115.062469,22.1008501 114.074809,22.5323201 C113.087148,22.9637901 111.960597,23.1875152 110.695157,23.1875152 Z M110.695157,20.3270292 C111.466767,20.3270292 112.145784,20.1512451 112.716775,19.8156574 C113.287766,19.4800697 113.750732,19.0326193 114.121105,18.4892868 C114.491478,17.9459542 114.753825,17.3227199 114.939012,16.635564 C115.108766,15.9484081 115.201359,15.2452719 115.201359,14.5261553 C115.201359,13.8230191 115.108766,13.1358632 114.939012,12.432727 C114.769257,11.7295908 114.491478,11.1223367 114.121105,10.5790042 C113.750732,10.0356717 113.287766,9.60420169 112.716775,9.26861395 C112.145784,8.9330262 111.466767,8.75724214 110.695157,8.75724214 C109.923547,8.75724214 109.244531,8.9330262 108.673539,9.26861395 C108.102548,9.60420169 107.639582,10.051652 107.269209,10.5790042 C106.898836,11.1223367 106.636489,11.7295908 106.451303,12.432727 C106.281549,13.1358632 106.188955,13.8230191 106.188955,14.5261553 C106.188955,15.2452719 106.281549,15.9484081 106.451303,16.635564 C106.621057,17.3227199 106.898836,17.9459542 107.269209,18.4892868 C107.639582,19.0326193 108.102548,19.4800697 108.673539,19.8156574 C109.244531,20.1672255 109.923547,20.3270292 110.695157,20.3270292 Z M119.707561,6.34420644 L122.346467,6.34420644 L122.346467,1.42225283 L125.834144,1.42225283 L125.834144,6.34420644 L128.982312,6.34420644 L128.982312,9.04488878 L125.834144,9.04488878 L125.834144,17.8021309 C125.834144,18.1856598 125.849576,18.5052672 125.88044,18.7929138 C125.911305,19.0645801 125.988466,19.3042856 126.096491,19.49605 C126.204516,19.6878145 126.37427,19.8316378 126.605753,19.92752 C126.837236,20.0234022 127.130448,20.0713433 127.531685,20.0713433 C127.7786,20.0713433 128.025516,20.0713433 128.272431,20.0553629 C128.519346,20.0393826 128.766261,20.0074218 129.013176,19.9435004 L129.013176,22.7400649 C128.627371,22.788006 128.241566,22.8199667 127.886626,22.8679079 C127.516253,22.915849 127.14588,22.9318293 126.760075,22.9318293 C125.834144,22.9318293 125.093398,22.8359471 124.537839,22.6601631 C123.98228,22.484379 123.534746,22.2127127 123.226102,21.8611446 C122.902026,21.5095765 122.701407,21.0781065 122.57795,20.5507544 C122.469924,20.0234022 122.392763,19.4161482 122.377331,18.7449727 L122.377331,9.07684952 L119.738425,9.07684952 L119.738425,6.34420644 L119.707561,6.34420644 Z" id="Shape"></path>
                </g>
                <g id="Star" fill-rule="nonzero">
                    <polygon id="Shape" fill="#00B67A" points="41.8675535 15.7566437 25.8797963 15.7566437 20.9414929 0 15.9877573 15.7566437 0 15.7406633 12.9476142 25.4886884 7.99387863 41.2293517 20.9414929 31.497307 33.8736749 41.2293517 28.9353715 25.4886884 41.8675535 15.7566437 41.8675535 15.7566437"></polygon>
                    <polygon id="Shape" fill="#005128" points="30.0464898 29.0523106 28.9353715 25.4886884 20.9414929 31.497307"></polygon>
                </g>
            </g>
        </g>
    </g>
</svg>